<?xml version="1.0" encoding="utf-8"?>
<!-- Generator: Adobe Illustrator 16.0.0, SVG Export Plug-In . SVG Version: 6.00 Build 0)  -->
<!DOCTYPE svg PUBLIC "-//W3C//DTD SVG 1.1//EN" "http://www.w3.org/Graphics/SVG/1.1/DTD/svg11.dtd">
<svg version="1.1" id="Layer_1" xmlns="http://www.w3.org/2000/svg" xmlns:xlink="http://www.w3.org/1999/xlink" x="0px" y="0px"
	 width="135px" height="135px" viewBox="0 0 135 135" enable-background="new 0 0 135 135" xml:space="preserve">
<g>
	<g>
		<g>
			<path fill="#231F20" d="M39.155,118.59c-0.311,0.542-0.801,0.622-1.472,0.237c-0.673-0.384-0.854-0.847-0.546-1.389l1.992-3.491
				c0.027-0.046,0.045-0.088,0.053-0.128c0.008-0.041-0.028-0.084-0.106-0.129l-5.643-3.224c-0.42-0.237-0.468-0.644-0.147-1.219
				c0.319-0.573,0.693-0.737,1.124-0.493l6.745,3.853c0.405,0.231,0.627,0.496,0.659,0.792c0.033,0.297-0.024,0.575-0.173,0.835
				L39.155,118.59z M47.744,110.437c-0.596,1.04-1.516,1.7-2.764,1.983c-1.249,0.284-2.46,0.09-3.636-0.581
				c-1.196-0.683-1.992-1.632-2.387-2.845c-0.394-1.215-0.289-2.346,0.312-3.396c0.6-1.053,1.521-1.717,2.767-1.993
				c1.246-0.277,2.467-0.076,3.664,0.607c1.174,0.671,1.957,1.616,2.35,2.835C48.437,108.269,48.336,109.397,47.744,110.437z
				 M45.725,109.285c0.337-0.587,0.402-1.209,0.199-1.863c-0.203-0.655-0.604-1.153-1.202-1.496c-0.609-0.348-1.246-0.44-1.907-0.28
				c-0.661,0.162-1.16,0.537-1.495,1.125c-0.336,0.588-0.405,1.206-0.208,1.857c0.197,0.652,0.602,1.152,1.211,1.5
				c0.6,0.342,1.23,0.436,1.898,0.276C44.888,110.245,45.39,109.873,45.725,109.285z"/>
			<path fill="#231F20" d="M58.303,117.976c0.089,0.627-0.246,0.991-1.008,1.095c-0.765,0.103-1.189-0.159-1.279-0.786l-1.008-7.972
				l-5.836,10.334c-0.319,0.548-0.813,0.63-1.481,0.248c-0.667-0.383-0.841-0.848-0.521-1.396l5.959-10.567
				c0.319-0.547,0.812-0.623,1.477-0.229c0.298,0.178,0.498,0.369,0.604,0.575c0.177-0.151,0.436-0.253,0.776-0.307
				c0.765-0.115,1.19,0.141,1.281,0.768L58.303,117.976z M54.004,125.427c-0.459-0.089-0.752-0.269-0.879-0.539
				c-0.127-0.27-0.162-0.551-0.104-0.845l0.887-4.54c0.12-0.611,0.562-0.846,1.319-0.695c0.76,0.146,1.08,0.527,0.96,1.142
				l-0.695,3.563c-0.01,0.051-0.012,0.097-0.006,0.137c0.004,0.041,0.051,0.07,0.142,0.088l8.619,1.682
				c0.473,0.095,0.647,0.463,0.528,1.108c-0.118,0.646-0.422,0.923-0.906,0.827L54.004,125.427z M61.819,120.849
				c-0.119,0.611-0.561,0.846-1.318,0.696c-0.76-0.147-1.08-0.528-0.961-1.143l1.938-9.921c0.12-0.613,0.561-0.847,1.318-0.697
				c0.761,0.146,1.08,0.529,0.961,1.142L61.819,120.849z M66.481,116.013c-0.08,0.409-0.292,0.729-0.635,0.961
				c-0.344,0.23-0.721,0.307-1.129,0.227c-0.407-0.079-0.729-0.29-0.959-0.635c-0.231-0.344-0.308-0.719-0.228-1.127
				c0.079-0.409,0.29-0.729,0.636-0.961c0.344-0.23,0.719-0.308,1.127-0.229c0.409,0.081,0.729,0.292,0.959,0.635
				C66.485,115.229,66.561,115.604,66.481,116.013z"/>
			<path fill="#231F20" d="M77.277,114.001c0.212,1.324-0.075,2.535-0.86,3.637c-0.334,0.463-0.721,0.854-1.156,1.174
				c0.117-0.006,0.23,0.009,0.343,0.043c0.194,0.062,0.374,0.197,0.54,0.408l2.781,3.547l1.535-4.237
				c0.09-0.252,0.221-0.438,0.385-0.556c0.166-0.119,0.363-0.196,0.597-0.233c0.243-0.039,0.462-0.027,0.657,0.032
				c0.193,0.062,0.373,0.197,0.539,0.408l4,5.11c0.479,0.607,0.4,1.103-0.237,1.48c-0.638,0.38-1.13,0.352-1.476-0.08l-2.961-3.795
				l-1.646,4.532c-0.063,0.182-0.173,0.316-0.33,0.407c-0.155,0.091-0.325,0.145-0.507,0.16c-0.205,0.045-0.398,0.05-0.582,0.014
				c-0.184-0.035-0.34-0.13-0.47-0.279l-2.959-3.795l-1.646,4.531c-0.194,0.52-0.653,0.697-1.377,0.536
				c-0.725-0.161-0.954-0.604-0.687-1.333l2.203-6.104c0.029-0.069,0.058-0.142,0.086-0.211c-0.252,0.08-0.519,0.143-0.801,0.188
				c-1.361,0.217-2.584-0.067-3.664-0.855c-1.082-0.789-1.73-1.853-1.943-3.188c-0.216-1.336,0.069-2.547,0.852-3.635
				c0.78-1.086,1.854-1.738,3.214-1.957c1.336-0.213,2.545,0.074,3.625,0.863C76.415,111.603,77.063,112.665,77.277,114.001z
				 M74.983,114.368c-0.127-0.797-0.482-1.435-1.066-1.914c-0.584-0.479-1.218-0.666-1.896-0.557
				c-0.693,0.11-1.24,0.484-1.641,1.122c-0.396,0.638-0.533,1.354-0.405,2.149c0.125,0.784,0.478,1.42,1.056,1.906
				c0.579,0.487,1.216,0.676,1.909,0.564c0.68-0.109,1.223-0.485,1.628-1.132C74.97,115.865,75.108,115.152,74.983,114.368z
				 M83.239,116.188c0.1,0.617-0.232,0.985-0.998,1.108c-0.764,0.122-1.195-0.125-1.295-0.741l-1.138-7.11
				c-0.099-0.616,0.233-0.986,0.999-1.107c0.764-0.122,1.195,0.124,1.295,0.74L83.239,116.188z"/>
			<path fill="#231F20" d="M94.841,109.606c0.916,1.649,1.32,3.284,1.216,4.904c-0.104,1.621-0.817,2.798-2.138,3.529
				c-1.309,0.728-2.683,0.716-4.125-0.031c-1.439-0.748-2.627-1.957-3.554-3.63c-0.929-1.672-1.327-3.316-1.2-4.937
				c0.129-1.618,0.849-2.791,2.154-3.518c1.332-0.738,2.708-0.727,4.13,0.04C92.747,106.732,93.919,107.946,94.841,109.606z
				 M92.845,110.715c-0.676-1.217-1.441-2.135-2.299-2.753c-0.855-0.619-1.654-0.723-2.396-0.313
				c-0.716,0.397-1.044,1.128-0.983,2.188c0.062,1.062,0.428,2.199,1.104,3.416c0.675,1.219,1.447,2.133,2.314,2.743
				c0.867,0.613,1.659,0.72,2.377,0.321c0.739-0.409,1.073-1.144,1.002-2.196C93.894,113.067,93.521,111.931,92.845,110.715z
				 M103.732,114.404c0.303,0.546,0.114,1.007-0.563,1.383c-0.678,0.375-1.168,0.291-1.47-0.257l-7.142-12.865
				c-0.304-0.545-0.116-1.007,0.561-1.382c0.677-0.376,1.166-0.291,1.47,0.255L103.732,114.404z M97.419,107.976
				c0.201,0.364,0.246,0.745,0.131,1.143c-0.113,0.398-0.354,0.699-0.717,0.901c-0.363,0.2-0.744,0.245-1.144,0.132
				c-0.397-0.114-0.697-0.354-0.899-0.718c-0.201-0.362-0.246-0.743-0.133-1.144c0.114-0.396,0.354-0.698,0.717-0.9
				c0.363-0.2,0.745-0.245,1.144-0.131C96.915,107.373,97.214,107.612,97.419,107.976z"/>
			<path fill="#231F20" d="M101.233,96.279c0.223-0.219,0.517-0.407,0.883-0.564c0.363-0.157,0.745-0.275,1.143-0.354l-0.017,0.013
				c0.416-0.062,0.827-0.013,1.235,0.144c0.407,0.154,0.794,0.418,1.159,0.788l0.654,0.669c0.849,0.863,1.118,1.975,0.812,3.334
				c-0.313,1.35-0.203,2.298,0.334,2.846l1.055,1.072c0.393,0.398,0.318,0.881-0.221,1.445c-0.538,0.529-1.013,0.585-1.423,0.166
				l-1.024-1.044c-0.521-0.527-0.854-1.085-1.001-1.671c-0.146-0.586-0.12-1.167,0.078-1.745c0.227-0.587,0.309-1.129,0.25-1.627
				c-0.063-0.497-0.264-0.922-0.61-1.273l-0.425-0.433c-0.227-0.23-0.509-0.374-0.845-0.429c-0.335-0.054-0.675,0.089-1.019,0.426
				l-0.904,0.889c-0.344,0.338-0.489,0.673-0.438,1.004c0.053,0.332,0.192,0.613,0.419,0.847l0.548,0.557
				c0.43,0.438,0.365,0.93-0.191,1.477c-0.538,0.527-1.022,0.573-1.45,0.138l-0.669-0.682c-0.74-0.752-1.041-1.551-0.903-2.396
				l-0.015,0.016c0.087-0.396,0.21-0.771,0.368-1.129c0.16-0.356,0.361-0.654,0.603-0.892L101.233,96.279z M111.012,106.179
				c0.317,0.324,0.477,0.704,0.473,1.137s-0.164,0.804-0.479,1.112c-0.316,0.312-0.689,0.465-1.122,0.459
				c-0.434-0.004-0.81-0.167-1.128-0.491c-0.31-0.315-0.459-0.688-0.451-1.115c0.009-0.429,0.171-0.797,0.484-1.106
				c0.316-0.311,0.688-0.465,1.115-0.466C110.334,105.707,110.701,105.863,111.012,106.179z"/>
		</g>
		<g>
			<g>
				<path fill="#231F20" d="M67.831,33.046c17.963,0,32.739,9.98,34.54,27.952h4.187c-0.765-20.573-17.866-37.021-38.859-37.021
					c-20.99,0-38.094,16.447-38.857,37.021h4.449C35.09,43.027,49.868,33.046,67.831,33.046z"/>
				<path d="M86.239,83.968c-0.051,0.188-0.092,0.334-0.104,0.375c-0.146,0.418-0.311,0.832-0.508,1.234
					c-0.375,0.761-0.85,1.588-1.545,2.143c-0.994,0.793-2.343,1-3.613,1.065c-1.813,0.093-3.774,0.135-5.442-0.631
					c-0.428-0.196-0.829-0.456-1.185-0.752c-2.744-2.275-2.793-6.027-2.736-9.164c0.038-2.168-0.003-4.346-0.007-6.515
					c-0.005-2.912,0.004-5.825-0.007-8.737c-0.012-2.611,0.012-5.221-0.004-7.832c-0.008-1.267,0.062-2.555-0.004-3.82
					c0-0.006-0.004-0.067-0.006-0.067s-6.62,0-6.62,0v29.34c0,0.146,0.004,0.286,0.01,0.43h0.011
					c0.073,2.338,0.403,3.563,1.199,5.646c0.896,2.348,2.39,4.893,4.484,6.508c2.713,2.095,6.496,2.652,9.936,2.442
					c1.063-0.063,2.141-0.209,3.177-0.436c2.354-0.515,4.627-1.496,6.369-3.067c1.256-1.13,2.176-2.521,2.651-4.08
					c0.16-0.528,0.291-1.065,0.422-1.604c0.166-0.7,0.322-1.403,0.51-2.099c0.033-0.123,0.066-0.247,0.1-0.369L86.239,83.968z"/>
			</g>
			<g>
				<path fill="#231F20" d="M33.333,39.642c0,0.765-0.354,1.384-0.791,1.384c-0.438,0-0.791-0.619-0.791-1.384
					c0-0.766,0.791-5.471,0.791-5.471S33.333,38.877,33.333,39.642z"/>
				<path fill="#231F20" d="M41.609,31.809c0,0.765-0.354,1.384-0.79,1.384s-0.791-0.619-0.791-1.384s0.791-5.471,0.791-5.471
					S41.609,31.045,41.609,31.809z"/>
				<path fill="#231F20" d="M51.454,24.27c0,0.764-0.353,1.384-0.791,1.384c-0.436,0-0.789-0.62-0.789-1.384
					c0-0.767,0.789-5.473,0.789-5.473S51.454,23.504,51.454,24.27z"/>
				<path fill="#231F20" d="M102.832,39.251c0,0.764,0.354,1.384,0.79,1.384c0.438,0,0.791-0.62,0.791-1.384
					c0-0.766-0.791-5.472-0.791-5.472S102.832,38.486,102.832,39.251z"/>
				<path fill="#231F20" d="M94.423,31.809c0,0.765,0.354,1.384,0.791,1.384c0.437,0,0.791-0.619,0.791-1.384
					s-0.791-5.471-0.791-5.471S94.423,31.045,94.423,31.809z"/>
				<path fill="#231F20" d="M84.578,24.27c0,0.764,0.354,1.384,0.79,1.384c0.437,0,0.791-0.62,0.791-1.384
					c0-0.767-0.791-5.473-0.791-5.473S84.578,23.504,84.578,24.27z"/>
				<path fill="#231F20" d="M69.665,18.556c0,1.702-0.882,3.082-1.967,3.082c-1.087,0-1.966-1.38-1.966-3.082
					c0-1.704,1.966-12.191,1.966-12.191S69.665,16.851,69.665,18.556z"/>
			</g>
		</g>
	</g>
	<circle fill="none" stroke="#231F20" stroke-miterlimit="10" cx="67.696" cy="67.608" r="65"/>
</g>
</svg>
