<?xml version="1.0" encoding="utf-8"?>
<!-- Generator: Adobe Illustrator 16.0.0, SVG Export Plug-In . SVG Version: 6.00 Build 0)  -->
<!DOCTYPE svg PUBLIC "-//W3C//DTD SVG 1.1//EN" "http://www.w3.org/Graphics/SVG/1.1/DTD/svg11.dtd">
<svg version="1.1" id="Layer_1" xmlns="http://www.w3.org/2000/svg" xmlns:xlink="http://www.w3.org/1999/xlink" x="0px" y="0px"
	 width="130px" height="130px" viewBox="0 0 130 130" enable-background="new 0 0 130 130" xml:space="preserve">
<g>
	<g>
		<path fill="#231F20" d="M65.596,15.028c23.113,0,42.125,12.842,44.442,35.967h5.386c-0.982-26.472-22.99-47.636-50-47.636
			s-49.017,21.164-50,47.636h5.727C23.47,27.87,42.482,15.028,65.596,15.028z"/>
		<path d="M89.283,80.554c-0.064,0.237-0.117,0.429-0.135,0.48c-0.186,0.538-0.396,1.071-0.65,1.587
			c-0.484,0.979-1.096,2.044-1.99,2.759c-1.277,1.021-3.013,1.285-4.648,1.37c-2.334,0.12-4.858,0.174-7.002-0.813
			c-0.551-0.254-1.067-0.588-1.524-0.967c-3.532-2.927-3.595-7.756-3.522-11.794c0.051-2.787-0.004-5.591-0.009-8.38
			c-0.007-3.749,0.005-7.497-0.01-11.244c-0.013-3.358,0.017-6.718-0.004-10.076c-0.011-1.632,0.08-3.289-0.003-4.918
			c0-0.007-0.006-0.089-0.008-0.089s-8.52,0-8.52,0v37.757c0,0.186,0.007,0.368,0.013,0.552h0.015
			c0.092,3.011,0.518,4.585,1.541,7.265c1.154,3.02,3.077,6.294,5.772,8.374c3.488,2.694,8.356,3.412,12.782,3.146
			c1.365-0.084,2.755-0.271,4.087-0.563c3.031-0.662,5.954-1.923,8.197-3.944c1.613-1.455,2.797-3.247,3.41-5.251
			c0.208-0.682,0.376-1.374,0.543-2.064c0.214-0.901,0.415-1.807,0.654-2.701c0.043-0.157,0.086-0.316,0.129-0.474L89.283,80.554z"
			/>
	</g>
	<g>
		<path fill="#231F20" d="M33.799,116.261c-0.32,0.561-0.827,0.644-1.521,0.246c-0.695-0.396-0.882-0.875-0.562-1.436l2.059-3.606
			c0.026-0.046,0.044-0.091,0.052-0.132c0.008-0.042-0.029-0.087-0.11-0.133l-5.83-3.329c-0.432-0.246-0.482-0.665-0.151-1.259
			c0.33-0.594,0.717-0.763,1.161-0.509l6.968,3.979c0.42,0.239,0.647,0.513,0.682,0.817c0.034,0.307-0.025,0.594-0.179,0.861
			L33.799,116.261z M42.67,107.839c-0.613,1.073-1.564,1.757-2.854,2.05c-1.29,0.294-2.541,0.094-3.754-0.601
			c-1.237-0.705-2.059-1.687-2.465-2.938c-0.406-1.254-0.3-2.423,0.32-3.509c0.62-1.085,1.572-1.771,2.858-2.059
			c1.286-0.286,2.547-0.078,3.784,0.629c1.214,0.692,2.022,1.669,2.426,2.929C43.388,105.6,43.283,106.766,42.67,107.839z
			 M40.587,106.649c0.346-0.606,0.415-1.249,0.206-1.926c-0.209-0.678-0.624-1.191-1.242-1.546c-0.63-0.358-1.287-0.455-1.971-0.289
			c-0.683,0.167-1.198,0.555-1.544,1.161c-0.347,0.606-0.418,1.246-0.214,1.921c0.203,0.673,0.621,1.189,1.25,1.549
			c0.619,0.354,1.272,0.448,1.962,0.284C39.723,107.642,40.241,107.257,40.587,106.649z"/>
		<path fill="#231F20" d="M53.58,115.627c0.092,0.647-0.255,1.024-1.042,1.131c-0.788,0.106-1.228-0.165-1.321-0.813l-1.042-8.234
			l-6.028,10.675c-0.33,0.564-0.839,0.65-1.529,0.256c-0.69-0.395-0.87-0.875-0.541-1.44l6.157-10.916
			c0.33-0.564,0.838-0.645,1.525-0.236c0.307,0.185,0.514,0.382,0.624,0.595c0.181-0.155,0.448-0.262,0.801-0.314
			c0.79-0.12,1.231,0.145,1.324,0.792L53.58,115.627z M49.14,123.324c-0.475-0.094-0.778-0.279-0.908-0.559
			c-0.13-0.278-0.166-0.568-0.107-0.873l0.916-4.688c0.124-0.633,0.578-0.873,1.362-0.72c0.784,0.152,1.116,0.547,0.992,1.18
			l-0.718,3.681c-0.011,0.054-0.013,0.102-0.007,0.143c0.005,0.042,0.054,0.071,0.146,0.091l8.903,1.738
			c0.488,0.095,0.67,0.477,0.547,1.144s-0.436,0.953-0.937,0.854L49.14,123.324z M57.211,118.595
			c-0.124,0.633-0.578,0.873-1.363,0.72c-0.785-0.152-1.115-0.547-0.992-1.18l2.001-10.249c0.124-0.633,0.578-0.873,1.362-0.72
			c0.785,0.153,1.116,0.547,0.992,1.18L57.211,118.595z M62.027,113.599c-0.083,0.423-0.301,0.753-0.656,0.991
			c-0.354,0.239-0.743,0.317-1.165,0.235c-0.422-0.083-0.752-0.301-0.992-0.656c-0.239-0.354-0.317-0.742-0.234-1.165
			c0.082-0.422,0.3-0.753,0.655-0.992c0.355-0.237,0.743-0.315,1.166-0.232c0.422,0.082,0.752,0.301,0.991,0.654
			C62.031,112.789,62.109,113.177,62.027,113.599z"/>
		<path fill="#231F20" d="M73.18,111.521c0.217,1.367-0.08,2.619-0.891,3.757c-0.346,0.478-0.744,0.881-1.193,1.212
			c0.121-0.007,0.239,0.01,0.354,0.045c0.201,0.063,0.386,0.204,0.558,0.421l2.873,3.664l1.586-4.377
			c0.095-0.261,0.228-0.452,0.397-0.574c0.172-0.123,0.377-0.203,0.615-0.241c0.252-0.04,0.479-0.027,0.68,0.033
			c0.201,0.064,0.386,0.204,0.558,0.422l4.132,5.279c0.495,0.628,0.414,1.139-0.244,1.53c-0.66,0.392-1.168,0.361-1.524-0.083
			l-3.058-3.922l-1.701,4.683c-0.064,0.188-0.178,0.328-0.34,0.422s-0.338,0.149-0.525,0.166c-0.21,0.047-0.41,0.052-0.6,0.015
			c-0.19-0.038-0.353-0.135-0.485-0.289l-3.058-3.921l-1.699,4.683c-0.2,0.535-0.674,0.721-1.422,0.554
			c-0.748-0.166-0.985-0.625-0.711-1.377l2.277-6.305c0.03-0.072,0.059-0.146,0.088-0.22c-0.259,0.083-0.535,0.147-0.826,0.194
			c-1.406,0.225-2.668-0.07-3.787-0.885c-1.117-0.815-1.786-1.913-2.007-3.293c-0.221-1.38,0.072-2.631,0.879-3.754
			c0.807-1.122,1.915-1.797,3.321-2.021c1.381-0.221,2.629,0.076,3.746,0.891C72.288,109.043,72.958,110.141,73.18,111.521z
			 M70.811,111.9c-0.133-0.823-0.5-1.481-1.103-1.979c-0.604-0.495-1.257-0.688-1.96-0.574c-0.717,0.114-1.281,0.501-1.691,1.158
			c-0.413,0.659-0.553,1.399-0.421,2.223c0.129,0.81,0.493,1.466,1.091,1.969s1.254,0.697,1.971,0.583
			c0.705-0.112,1.265-0.501,1.682-1.168C70.795,113.447,70.939,112.71,70.811,111.9z M79.338,113.781
			c0.102,0.638-0.242,1.019-1.031,1.146c-0.789,0.126-1.236-0.129-1.338-0.766l-1.175-7.346c-0.103-0.639,0.242-1.021,1.031-1.146
			c0.788-0.126,1.235,0.129,1.337,0.766L79.338,113.781z"/>
		<path fill="#231F20" d="M91.32,106.981c0.947,1.704,1.365,3.393,1.257,5.066s-0.845,2.89-2.207,3.646
			c-1.353,0.75-2.771,0.738-4.261-0.032c-1.489-0.772-2.713-2.021-3.672-3.749c-0.959-1.729-1.371-3.428-1.24-5.101
			c0.134-1.672,0.875-2.884,2.227-3.634c1.375-0.763,2.797-0.749,4.266,0.043S90.369,105.267,91.32,106.981z M89.259,108.126
			c-0.698-1.257-1.489-2.205-2.374-2.844c-0.885-0.64-1.709-0.746-2.473-0.321c-0.74,0.41-1.08,1.164-1.018,2.259
			c0.063,1.097,0.442,2.271,1.141,3.528c0.697,1.258,1.494,2.202,2.392,2.834c0.896,0.633,1.716,0.743,2.455,0.332
			c0.765-0.424,1.109-1.182,1.035-2.271C90.342,110.557,89.957,109.384,89.259,108.126z M100.505,111.938
			c0.313,0.563,0.118,1.039-0.581,1.429c-0.699,0.388-1.205,0.301-1.518-0.266l-7.377-13.289c-0.313-0.563-0.119-1.04,0.58-1.428
			c0.699-0.389,1.205-0.301,1.518,0.265L100.505,111.938z M93.982,105.297c0.209,0.376,0.254,0.771,0.137,1.182
			c-0.117,0.41-0.365,0.722-0.741,0.93c-0.376,0.209-0.769,0.254-1.181,0.137c-0.411-0.118-0.721-0.364-0.93-0.741
			c-0.209-0.375-0.254-0.769-0.137-1.18c0.118-0.411,0.364-0.722,0.74-0.931c0.376-0.208,0.77-0.254,1.181-0.137
			C93.464,104.674,93.773,104.921,93.982,105.297z"/>
		<path fill="#231F20" d="M97.925,93.215c0.229-0.226,0.533-0.421,0.91-0.583c0.377-0.163,0.771-0.285,1.179-0.367l-0.015,0.015
			c0.428-0.063,0.854-0.015,1.274,0.146c0.422,0.161,0.822,0.435,1.197,0.816l0.678,0.689c0.877,0.893,1.156,2.039,0.84,3.442
			c-0.326,1.396-0.211,2.375,0.344,2.939l1.088,1.107c0.405,0.412,0.33,0.91-0.229,1.494c-0.555,0.546-1.045,0.604-1.469,0.172
			l-1.06-1.078c-0.537-0.547-0.881-1.121-1.032-1.727c-0.152-0.604-0.125-1.206,0.08-1.803c0.234-0.606,0.32-1.166,0.258-1.681
			c-0.062-0.514-0.271-0.953-0.63-1.316l-0.438-0.445c-0.234-0.239-0.525-0.388-0.871-0.443c-0.348-0.055-0.698,0.092-1.053,0.44
			l-0.934,0.918c-0.355,0.349-0.506,0.693-0.452,1.036s0.199,0.634,0.435,0.873l0.564,0.575c0.443,0.451,0.377,0.959-0.199,1.523
			c-0.556,0.547-1.055,0.594-1.498,0.143l-0.691-0.703c-0.764-0.777-1.074-1.602-0.934-2.476l-0.014,0.016
			c0.089-0.407,0.217-0.798,0.38-1.166c0.165-0.368,0.372-0.677,0.622-0.921L97.925,93.215z M108.025,103.44
			c0.33,0.336,0.492,0.727,0.488,1.174c-0.004,0.445-0.168,0.829-0.494,1.148c-0.326,0.321-0.713,0.479-1.16,0.476
			c-0.446-0.004-0.834-0.174-1.166-0.51c-0.319-0.325-0.476-0.71-0.465-1.151c0.008-0.441,0.176-0.822,0.502-1.144
			c0.326-0.319,0.709-0.48,1.15-0.481C107.324,102.952,107.706,103.115,108.025,103.44z"/>
	</g>
</g>
</svg>
