<?xml version="1.0" encoding="utf-8"?>
<!-- Generator: Adobe Illustrator 16.0.0, SVG Export Plug-In . SVG Version: 6.00 Build 0)  -->
<!DOCTYPE svg PUBLIC "-//W3C//DTD SVG 1.1//EN" "http://www.w3.org/Graphics/SVG/1.1/DTD/svg11.dtd">
<svg version="1.1" id="Layer_1" xmlns="http://www.w3.org/2000/svg" xmlns:xlink="http://www.w3.org/1999/xlink" x="0px" y="0px"
	 width="130px" height="130px" viewBox="0 0 130 130" enable-background="new 0 0 130 130" xml:space="preserve">
<g>
	<path fill="#231F20" d="M63.633,23.808c23.113,0,42.125,12.843,44.442,35.968h5.386c-0.982-26.473-22.99-47.637-50-47.637
		s-49.017,21.164-50,47.637h5.727C21.506,36.649,40.519,23.808,63.633,23.808z"/>
	<path d="M87.318,102.436c-0.063,0.237-0.116,0.43-0.133,0.48c-0.187,0.539-0.397,1.072-0.651,1.588
		c-0.484,0.98-1.095,2.044-1.99,2.758c-1.278,1.021-3.013,1.286-4.647,1.37c-2.334,0.12-4.859,0.175-7.004-0.811
		c-0.55-0.254-1.066-0.588-1.523-0.968c-3.532-2.928-3.594-7.757-3.521-11.794c0.049-2.788-0.005-5.591-0.01-8.381
		c-0.007-3.748,0.005-7.496-0.01-11.243c-0.012-3.358,0.016-6.719-0.004-10.076c-0.01-1.633,0.08-3.288-0.004-4.917
		c0-0.008-0.004-0.089-0.008-0.089c-0.002,0-8.519,0-8.519,0V98.11c0,0.185,0.007,0.366,0.013,0.551h0.015
		c0.092,3.01,0.518,4.585,1.541,7.265c1.154,3.021,3.077,6.293,5.772,8.374c3.489,2.694,8.356,3.412,12.783,3.145
		c1.365-0.082,2.754-0.271,4.087-0.563c3.031-0.662,5.954-1.924,8.197-3.943c1.614-1.456,2.797-3.247,3.409-5.251
		c0.209-0.684,0.377-1.374,0.543-2.065c0.215-0.901,0.416-1.806,0.656-2.702c0.043-0.156,0.084-0.314,0.127-0.474L87.318,102.436z"
		/>
	<g>
		<path fill="#231F20" d="M38.378,52.479c0,0.519-0.321,0.779-0.963,0.779c-0.646,0-0.966-0.261-0.966-0.779v-3.338
			c0-0.044-0.005-0.081-0.016-0.114c-0.01-0.031-0.053-0.048-0.129-0.048h-5.398c-0.4,0-0.604-0.273-0.609-0.819
			c-0.005-0.545,0.199-0.819,0.609-0.819h6.452c0.389,0,0.658,0.102,0.8,0.3c0.147,0.201,0.22,0.425,0.22,0.673L38.378,52.479
			L38.378,52.479z M41.215,43.061c0,0.995-0.39,1.852-1.176,2.569c-0.782,0.719-1.737,1.078-2.86,1.078
			c-1.145,0-2.11-0.355-2.892-1.069c-0.785-0.712-1.175-1.571-1.175-2.577c0-1.005,0.39-1.863,1.175-2.575
			c0.783-0.714,1.748-1.071,2.892-1.071c1.124,0,2.078,0.359,2.86,1.078C40.824,41.21,41.215,42.067,41.215,43.061z M39.287,43.061
			c0-0.561-0.207-1.038-0.625-1.425c-0.415-0.391-0.91-0.584-1.483-0.584c-0.582,0-1.079,0.193-1.49,0.584
			c-0.411,0.386-0.616,0.864-0.616,1.425c0,0.564,0.206,1.039,0.616,1.429c0.411,0.388,0.908,0.581,1.49,0.581
			c0.573,0,1.069-0.195,1.483-0.581C39.08,44.1,39.287,43.625,39.287,43.061z"/>
		<path fill="#231F20" d="M51.915,46.871c0.173,0.495-0.044,0.848-0.647,1.054c-0.606,0.205-0.996,0.059-1.168-0.438l-2.092-6.338
			l-3.112,9.353c-0.174,0.496-0.562,0.644-1.167,0.437c-0.604-0.203-0.82-0.556-0.647-1.053l3.177-9.565
			c0.173-0.497,0.561-0.638,1.167-0.421c0.269,0.1,0.465,0.221,0.582,0.373c0.118-0.152,0.313-0.273,0.585-0.373
			c0.604-0.217,0.993-0.076,1.166,0.421L51.915,46.871z M49.597,53.631c-0.388,0-0.657-0.101-0.802-0.3
			c-0.145-0.202-0.219-0.425-0.219-0.673v-3.843c0-0.517,0.322-0.78,0.965-0.78c0.643,0,0.964,0.264,0.964,0.78v3.017
			c0,0.043,0.006,0.08,0.018,0.112c0.01,0.033,0.054,0.049,0.129,0.049h7.294c0.401,0,0.604,0.274,0.61,0.821
			c0.003,0.544-0.198,0.817-0.61,0.817L49.597,53.631L49.597,53.631z M55.237,48.654c0,0.519-0.321,0.777-0.964,0.777
			s-0.965-0.259-0.965-0.777v-8.397c0-0.519,0.322-0.779,0.965-0.779s0.964,0.261,0.964,0.779V48.654z M58.269,43.968
			c0,0.347-0.122,0.643-0.365,0.886c-0.244,0.244-0.537,0.363-0.884,0.363c-0.348,0-0.64-0.119-0.885-0.363
			c-0.243-0.243-0.364-0.538-0.364-0.886c0-0.343,0.121-0.641,0.364-0.884c0.245-0.242,0.537-0.365,0.885-0.365
			c0.347,0,0.64,0.123,0.884,0.365C58.147,43.327,58.269,43.625,58.269,43.968z"/>
		<path fill="#231F20" d="M67.882,43.646c0,1.11-0.393,2.067-1.184,2.866c-0.335,0.336-0.703,0.607-1.103,0.811
			c0.098,0.012,0.19,0.04,0.276,0.081c0.15,0.077,0.28,0.212,0.388,0.405l1.816,3.274l1.816-3.274
			c0.105-0.193,0.238-0.328,0.387-0.405c0.152-0.073,0.324-0.113,0.521-0.113c0.205,0,0.383,0.039,0.532,0.113
			c0.152,0.077,0.281,0.212,0.39,0.405l2.609,4.718c0.314,0.563,0.185,0.955-0.389,1.184c-0.572,0.226-0.972,0.14-1.199-0.259
			l-1.93-3.501l-1.944,3.501c-0.077,0.141-0.185,0.238-0.325,0.292c-0.141,0.053-0.285,0.073-0.438,0.064
			c-0.172,0.01-0.332-0.012-0.479-0.064c-0.144-0.054-0.262-0.151-0.348-0.292l-1.929-3.501l-1.944,3.501
			c-0.229,0.398-0.627,0.484-1.201,0.259c-0.573-0.229-0.704-0.62-0.389-1.184l2.61-4.718c0.033-0.055,0.066-0.108,0.097-0.16
			c-0.214,0.03-0.44,0.048-0.68,0.048c-1.145,0-2.11-0.396-2.893-1.185c-0.785-0.789-1.176-1.745-1.176-2.866
			c0-1.124,0.392-2.084,1.176-2.873c0.784-0.789,1.749-1.18,2.893-1.18c1.124,0,2.078,0.391,2.862,1.18
			C67.489,41.563,67.882,42.522,67.882,43.646z M65.952,43.646c0-0.672-0.208-1.243-0.624-1.712
			c-0.416-0.471-0.912-0.705-1.482-0.705c-0.583,0-1.08,0.235-1.492,0.705c-0.41,0.47-0.616,1.04-0.616,1.712
			c0,0.657,0.206,1.227,0.616,1.701c0.412,0.477,0.909,0.712,1.492,0.712c0.57,0,1.067-0.236,1.482-0.712
			C65.744,44.873,65.952,44.304,65.952,43.646z M72.485,46.222c0,0.521-0.321,0.779-0.965,0.779c-0.646,0-0.965-0.259-0.965-0.779
			v-5.979c0-0.522,0.319-0.78,0.965-0.78c0.644,0,0.965,0.258,0.965,0.78V46.222z"/>
		<path fill="#231F20" d="M83.363,45.41c0,1.57-0.365,2.92-1.094,4.054c-0.73,1.137-1.721,1.702-2.978,1.702
			c-1.241,0-2.237-0.563-2.981-1.686c-0.747-1.125-1.117-2.479-1.117-4.07c0-1.588,0.371-2.943,1.117-4.068
			c0.746-1.122,1.742-1.687,2.981-1.687c1.266,0,2.259,0.566,2.984,1.693C83.002,42.48,83.363,43.834,83.363,45.41z M81.467,45.41
			c0-1.156-0.186-2.131-0.56-2.924c-0.374-0.795-0.91-1.192-1.615-1.192c-0.681,0-1.211,0.397-1.595,1.192
			c-0.385,0.793-0.576,1.768-0.576,2.924c0,1.158,0.192,2.133,0.576,2.926c0.384,0.796,0.914,1.193,1.595,1.193
			c0.705,0,1.241-0.397,1.615-1.193C81.281,47.544,81.467,46.568,81.467,45.41z M85.893,45.266c0,0.347-0.121,0.642-0.367,0.885
			c-0.241,0.243-0.535,0.363-0.883,0.363c-0.345,0-0.641-0.12-0.883-0.363c-0.244-0.243-0.365-0.537-0.365-0.885
			c0-0.345,0.121-0.641,0.365-0.885c0.242-0.241,0.537-0.363,0.883-0.363s0.642,0.122,0.883,0.363
			C85.771,44.625,85.893,44.92,85.893,45.266z M87.887,52.479c0,0.519-0.322,0.779-0.965,0.779s-0.965-0.261-0.965-0.779V40.257
			c0-0.519,0.322-0.779,0.965-0.779s0.965,0.261,0.965,0.779V52.479z"/>
		<path fill="#231F20" d="M95.115,39.965c0.26,0,0.544,0.061,0.852,0.179c0.308,0.117,0.604,0.271,0.883,0.453h-0.016
			c0.281,0.205,0.498,0.474,0.649,0.802c0.15,0.331,0.226,0.71,0.226,1.144v0.778c0,1.005-0.486,1.82-1.459,2.446
			c-0.971,0.616-1.459,1.244-1.459,1.883v1.249c0,0.463-0.322,0.705-0.973,0.727c-0.627,0-0.939-0.243-0.939-0.727v-1.218
			c0-0.614,0.127-1.139,0.381-1.571c0.252-0.434,0.608-0.761,1.063-0.988c0.476-0.217,0.84-0.488,1.095-0.818
			c0.253-0.329,0.38-0.7,0.38-1.11V42.69c0-0.272-0.084-0.521-0.252-0.747c-0.165-0.229-0.449-0.341-0.849-0.341h-1.054
			c-0.4,0-0.68,0.112-0.843,0.341c-0.162,0.226-0.242,0.475-0.242,0.747v0.648c0,0.506-0.326,0.762-0.975,0.762
			c-0.626,0-0.938-0.256-0.938-0.762v-0.796c0-0.877,0.284-1.524,0.859-1.945h-0.02c0.282-0.182,0.573-0.336,0.877-0.453
			c0.302-0.118,0.593-0.179,0.877-0.179L95.115,39.965L95.115,39.965z M95.147,51.523c0,0.377-0.127,0.693-0.382,0.947
			c-0.254,0.252-0.564,0.382-0.932,0.382s-0.68-0.129-0.934-0.382c-0.254-0.254-0.38-0.57-0.38-0.947
			c0-0.368,0.126-0.678,0.38-0.923c0.254-0.25,0.566-0.375,0.934-0.375s0.677,0.124,0.932,0.375
			C95.021,50.846,95.147,51.155,95.147,51.523z"/>
	</g>
</g>
</svg>
