<?xml version="1.0" encoding="utf-8"?>
<!-- Generator: Adobe Illustrator 16.0.0, SVG Export Plug-In . SVG Version: 6.00 Build 0)  -->
<!DOCTYPE svg PUBLIC "-//W3C//DTD SVG 1.1//EN" "http://www.w3.org/Graphics/SVG/1.1/DTD/svg11.dtd">
<svg version="1.1" id="Layer_1" xmlns="http://www.w3.org/2000/svg" xmlns:xlink="http://www.w3.org/1999/xlink" x="0px" y="0px"
	 width="110px" height="120px" viewBox="0 0 110 120" enable-background="new 0 0 110 120" xml:space="preserve">
<g>
	<g>
		<path fill="#231F20" d="M55.512,36.703c23.113,0,42.125,12.841,44.441,35.969h5.388c-0.983-26.474-22.99-47.638-50-47.638
			s-49.017,21.164-50,47.638h5.727C13.385,49.545,32.398,36.703,55.512,36.703z"/>
		<path d="M79.197,102.229c-0.063,0.237-0.116,0.43-0.133,0.481c-0.188,0.538-0.398,1.071-0.652,1.588
			c-0.482,0.98-1.093,2.042-1.989,2.757c-1.278,1.021-3.013,1.285-4.648,1.37c-2.333,0.119-4.858,0.175-7.003-0.812
			c-0.551-0.254-1.068-0.587-1.524-0.967c-3.532-2.927-3.593-7.756-3.521-11.794c0.05-2.788-0.004-5.591-0.009-8.38
			c-0.006-3.748,0.005-7.498-0.01-11.244c-0.012-3.358,0.016-6.717-0.004-10.075c-0.01-1.632,0.081-3.29-0.003-4.918
			c0-0.008-0.005-0.089-0.009-0.089c-0.002,0-8.517,0-8.517,0v37.756c0,0.187,0.006,0.368,0.012,0.553h0.015
			c0.092,3.009,0.518,4.585,1.54,7.264c1.154,3.02,3.077,6.293,5.771,8.375c3.489,2.693,8.358,3.41,12.784,3.144
			c1.365-0.082,2.754-0.271,4.086-0.563c3.031-0.663,5.955-1.923,8.197-3.944c1.616-1.455,2.799-3.247,3.41-5.251
			c0.209-0.683,0.377-1.374,0.543-2.065c0.216-0.902,0.416-1.807,0.656-2.702c0.043-0.156,0.085-0.316,0.127-0.475L79.197,102.229z"
			/>
	</g>
	<g>
		<path fill="#231F20" d="M11.121,45.191c0,0.984-0.456,1.781-1.018,1.781c-0.563,0-1.019-0.797-1.019-1.781
			c0-0.985,1.019-7.039,1.019-7.039S11.121,44.208,11.121,45.191z"/>
		<path fill="#231F20" d="M21.773,35.111c0,0.984-0.455,1.781-1.018,1.781s-1.019-0.797-1.019-1.781
			c0-0.985,1.019-7.039,1.019-7.039S21.773,34.128,21.773,35.111z"/>
		<path fill="#231F20" d="M34.441,25.41c0,0.984-0.456,1.781-1.019,1.781s-1.018-0.797-1.018-1.781c0-0.984,1.018-7.038,1.018-7.038
			S34.441,24.427,34.441,25.41z"/>
		<path fill="#231F20" d="M100.549,44.687c0,0.983,0.456,1.781,1.018,1.781c0.563,0,1.02-0.797,1.02-1.781
			c0-0.985-1.02-7.039-1.02-7.039S100.549,43.704,100.549,44.687z"/>
		<path fill="#231F20" d="M89.729,35.111c0,0.984,0.455,1.781,1.018,1.781c0.563,0,1.02-0.797,1.02-1.781
			c0-0.985-1.02-7.039-1.02-7.039S89.729,34.128,89.729,35.111z"/>
		<path fill="#231F20" d="M77.061,25.41c0,0.984,0.456,1.781,1.019,1.781s1.018-0.797,1.018-1.781c0-0.984-1.018-7.038-1.018-7.038
			S77.061,24.427,77.061,25.41z"/>
		<path fill="#231F20" d="M57.871,18.056c0,2.192-1.133,3.969-2.53,3.969s-2.53-1.777-2.53-3.969c0-2.193,2.53-15.687,2.53-15.687
			S57.871,15.864,57.871,18.056z"/>
	</g>
</g>
</svg>
