<?xml version="1.0" encoding="utf-8"?>
<!-- Generator: Adobe Illustrator 16.0.0, SVG Export Plug-In . SVG Version: 6.00 Build 0)  -->
<!DOCTYPE svg PUBLIC "-//W3C//DTD SVG 1.1//EN" "http://www.w3.org/Graphics/SVG/1.1/DTD/svg11.dtd">
<svg version="1.1" id="Layer_1" xmlns="http://www.w3.org/2000/svg" xmlns:xlink="http://www.w3.org/1999/xlink" x="0px" y="0px"
	 width="130px" height="130px" viewBox="0 0 130 130" enable-background="new 0 0 130 130" xml:space="preserve">
<g>
	<g>
		<path fill="#231F20" d="M65.372,39.777c19.646,0,35.807,10.916,37.774,30.571h4.578c-0.835-22.501-19.541-40.49-42.5-40.49
			c-22.958,0-41.664,17.989-42.5,40.49h4.867C29.563,50.693,45.725,39.777,65.372,39.777z"/>
		<path d="M85.505,106.145c-0.055,0.202-0.1,0.364-0.113,0.409c-0.159,0.457-0.339,0.911-0.555,1.351
			c-0.412,0.833-0.93,1.735-1.69,2.344c-1.087,0.867-2.562,1.094-3.952,1.165c-1.982,0.103-4.128,0.147-5.952-0.689
			c-0.468-0.216-0.906-0.5-1.294-0.82c-3.004-2.489-3.055-6.595-2.995-10.025c0.043-2.37-0.003-4.752-0.008-7.123
			c-0.005-3.187,0.005-6.372-0.007-9.558c-0.012-2.855,0.013-5.71-0.005-8.564c-0.008-1.387,0.068-2.796-0.003-4.181
			c0-0.006-0.004-0.074-0.006-0.074s-7.24,0-7.24,0v32.092c0,0.157,0.005,0.313,0.01,0.468h0.014
			c0.079,2.561,0.44,3.898,1.311,6.177c0.98,2.565,2.614,5.35,4.905,7.118c2.966,2.288,7.104,2.899,10.866,2.672
			c1.161-0.069,2.341-0.23,3.474-0.479c2.576-0.563,5.062-1.635,6.967-3.353c1.373-1.237,2.379-2.761,2.899-4.465
			c0.177-0.578,0.318-1.166,0.461-1.755c0.184-0.766,0.354-1.534,0.558-2.297c0.036-0.133,0.072-0.268,0.109-0.401L85.505,106.145z"
			/>
	</g>
	<g>
		<path fill="#231F20" d="M27.64,46.992c0,0.836-0.388,1.514-0.865,1.514c-0.479,0-0.864-0.678-0.864-1.514
			c0-0.837,0.864-5.982,0.864-5.982S27.64,46.155,27.64,46.992z"/>
		<path fill="#231F20" d="M36.693,38.425c0,0.836-0.387,1.515-0.864,1.515c-0.479,0-0.865-0.679-0.865-1.515
			s0.865-5.981,0.865-5.981S36.693,37.589,36.693,38.425z"/>
		<path fill="#231F20" d="M47.46,30.179c0,0.836-0.386,1.515-0.864,1.515c-0.477,0-0.865-0.679-0.865-1.515
			c0-0.837,0.865-5.982,0.865-5.982S47.46,29.342,47.46,30.179z"/>
		<path fill="#231F20" d="M103.652,46.564c0,0.836,0.389,1.513,0.865,1.513c0.479,0,0.865-0.677,0.865-1.513
			c0-0.838-0.865-5.983-0.865-5.983S103.652,45.729,103.652,46.564z"/>
		<path fill="#231F20" d="M94.456,38.425c0,0.836,0.387,1.515,0.865,1.515c0.478,0,0.864-0.679,0.864-1.515
			s-0.864-5.981-0.864-5.981S94.456,37.589,94.456,38.425z"/>
		<path fill="#231F20" d="M83.688,30.179c0,0.836,0.388,1.515,0.865,1.515c0.477,0,0.864-0.679,0.864-1.515
			c0-0.837-0.864-5.982-0.864-5.982S83.688,29.342,83.688,30.179z"/>
		<path fill="#231F20" d="M67.377,23.929c0,1.862-0.964,3.372-2.15,3.372c-1.188,0-2.149-1.51-2.149-3.372
			c0-1.863,2.149-13.334,2.149-13.334S67.377,22.064,67.377,23.929z"/>
	</g>
	<g>
		<path fill="#231F20" d="M42.126,66.411c0,0.475-0.294,0.714-0.883,0.714c-0.591,0-0.885-0.239-0.885-0.714v-3.058
			c0-0.04-0.005-0.074-0.015-0.104c-0.01-0.028-0.049-0.044-0.118-0.044h-4.944c-0.366,0-0.553-0.25-0.558-0.75
			c-0.005-0.499,0.183-0.751,0.558-0.751h5.909c0.356,0,0.603,0.094,0.733,0.275c0.135,0.184,0.201,0.389,0.201,0.616L42.126,66.411
			L42.126,66.411z M44.725,57.785c0,0.911-0.357,1.695-1.077,2.354c-0.717,0.658-1.591,0.987-2.62,0.987
			c-1.049,0-1.933-0.326-2.648-0.979c-0.719-0.652-1.076-1.439-1.076-2.36s0.357-1.707,1.076-2.359
			c0.717-0.653,1.601-0.98,2.648-0.98c1.029,0,1.903,0.329,2.62,0.987C44.366,56.09,44.725,56.875,44.725,57.785z M42.958,57.785
			c0-0.514-0.189-0.951-0.572-1.306c-0.38-0.357-0.834-0.534-1.358-0.534c-0.533,0-0.988,0.177-1.364,0.534
			c-0.377,0.354-0.564,0.792-0.564,1.306c0,0.517,0.188,0.951,0.564,1.309c0.376,0.354,0.831,0.532,1.364,0.532
			c0.524,0,0.979-0.179,1.358-0.532C42.769,58.736,42.958,58.302,42.958,57.785z"/>
		<path fill="#231F20" d="M54.524,61.275c0.158,0.453-0.04,0.776-0.593,0.965c-0.556,0.188-0.912,0.054-1.07-0.401l-1.916-5.806
			L48.095,64.6c-0.159,0.455-0.515,0.59-1.069,0.4c-0.554-0.187-0.751-0.509-0.593-0.965l2.91-8.761
			c0.158-0.455,0.514-0.584,1.068-0.386c0.246,0.091,0.426,0.202,0.533,0.342c0.108-0.14,0.287-0.251,0.536-0.342
			c0.554-0.198,0.909-0.069,1.068,0.386L54.524,61.275z M52.401,67.467c-0.355,0-0.602-0.092-0.734-0.274
			c-0.133-0.186-0.2-0.39-0.2-0.616v-3.521c0-0.473,0.295-0.714,0.884-0.714s0.883,0.241,0.883,0.714v2.764
			c0,0.039,0.006,0.073,0.017,0.103c0.009,0.03,0.049,0.045,0.118,0.045h6.681c0.367,0,0.553,0.251,0.559,0.752
			c0.003,0.498-0.182,0.749-0.559,0.749L52.401,67.467L52.401,67.467z M57.567,62.908c0,0.476-0.294,0.712-0.883,0.712
			s-0.884-0.236-0.884-0.712v-7.691c0-0.475,0.295-0.714,0.884-0.714s0.883,0.239,0.883,0.714V62.908z M60.345,58.616
			c0,0.317-0.111,0.588-0.334,0.811c-0.224,0.224-0.492,0.333-0.81,0.333c-0.318,0-0.586-0.109-0.811-0.333
			c-0.223-0.223-0.333-0.492-0.333-0.811c0-0.314,0.11-0.587,0.333-0.81c0.225-0.222,0.492-0.335,0.811-0.335
			c0.317,0,0.586,0.113,0.81,0.335C60.233,58.029,60.345,58.302,60.345,58.616z"/>
		<path fill="#231F20" d="M69.149,58.321c0,1.018-0.359,1.894-1.084,2.626c-0.307,0.308-0.644,0.556-1.01,0.742
			c0.09,0.011,0.174,0.036,0.253,0.074c0.138,0.07,0.257,0.194,0.355,0.371l1.664,2.999l1.663-2.999
			c0.097-0.177,0.218-0.301,0.354-0.371c0.139-0.067,0.297-0.104,0.478-0.104c0.188,0,0.351,0.035,0.487,0.104
			c0.14,0.07,0.258,0.194,0.356,0.371l2.391,4.321c0.288,0.516,0.169,0.875-0.355,1.084c-0.525,0.207-0.891,0.128-1.1-0.237
			l-1.768-3.206l-1.78,3.206c-0.07,0.129-0.169,0.219-0.298,0.268s-0.261,0.067-0.4,0.06c-0.158,0.009-0.305-0.011-0.438-0.06
			c-0.132-0.049-0.239-0.139-0.318-0.268l-1.767-3.206l-1.781,3.206c-0.209,0.365-0.574,0.444-1.1,0.237
			c-0.524-0.209-0.645-0.568-0.356-1.084l2.391-4.321c0.03-0.05,0.061-0.1,0.089-0.146c-0.196,0.027-0.403,0.044-0.623,0.044
			c-1.049,0-1.933-0.362-2.649-1.085c-0.719-0.723-1.077-1.599-1.077-2.626c0-1.029,0.358-1.908,1.077-2.631
			c0.718-0.723,1.602-1.081,2.649-1.081c1.029,0,1.903,0.358,2.621,1.081C68.79,56.413,69.149,57.292,69.149,58.321z M67.382,58.321
			c0-0.615-0.19-1.139-0.571-1.567c-0.381-0.432-0.835-0.646-1.357-0.646c-0.534,0-0.989,0.216-1.366,0.646
			c-0.376,0.43-0.564,0.952-0.564,1.567c0,0.603,0.188,1.124,0.564,1.559c0.377,0.437,0.832,0.652,1.366,0.652
			c0.522,0,0.978-0.217,1.357-0.652C67.191,59.445,67.382,58.924,67.382,58.321z M73.366,60.681c0,0.477-0.295,0.714-0.884,0.714
			c-0.591,0-0.884-0.237-0.884-0.714v-5.478c0-0.479,0.293-0.714,0.884-0.714c0.589,0,0.884,0.235,0.884,0.714V60.681z"/>
		<path fill="#231F20" d="M83.329,59.938c0,1.438-0.334,2.674-1.002,3.713c-0.668,1.041-1.576,1.559-2.727,1.559
			c-1.137,0-2.049-0.516-2.73-1.544c-0.685-1.03-1.024-2.271-1.024-3.728c0-1.455,0.341-2.696,1.024-3.727
			c0.683-1.028,1.595-1.545,2.73-1.545c1.159,0,2.069,0.519,2.733,1.551C82.998,57.254,83.329,58.493,83.329,59.938z M81.592,59.938
			c0-1.06-0.17-1.952-0.512-2.679c-0.343-0.728-0.834-1.092-1.479-1.092c-0.623,0-1.109,0.364-1.461,1.092
			c-0.353,0.727-0.527,1.619-0.527,2.679c0,1.061,0.176,1.953,0.527,2.68c0.352,0.729,0.838,1.093,1.461,1.093
			c0.646,0,1.137-0.364,1.479-1.093C81.422,61.892,81.592,60.998,81.592,59.938z M85.646,59.805c0,0.317-0.11,0.588-0.335,0.811
			c-0.222,0.223-0.491,0.333-0.809,0.333c-0.316,0-0.587-0.11-0.81-0.333c-0.224-0.223-0.334-0.492-0.334-0.811
			c0-0.315,0.11-0.587,0.334-0.811c0.223-0.221,0.492-0.333,0.81-0.333c0.316,0,0.587,0.112,0.809,0.333
			C85.534,59.218,85.646,59.488,85.646,59.805z M87.473,66.411c0,0.475-0.295,0.714-0.884,0.714s-0.884-0.239-0.884-0.714V55.217
			c0-0.475,0.295-0.714,0.884-0.714s0.884,0.239,0.884,0.714V66.411z"/>
		<path fill="#231F20" d="M94.094,54.949c0.237,0,0.498,0.056,0.779,0.164c0.282,0.107,0.553,0.248,0.809,0.415h-0.014
			c0.257,0.188,0.456,0.434,0.595,0.734c0.138,0.303,0.207,0.65,0.207,1.047v0.713c0,0.921-0.446,1.668-1.337,2.241
			c-0.89,0.564-1.336,1.14-1.336,1.725v1.144c0,0.424-0.296,0.646-0.891,0.666c-0.575,0-0.861-0.223-0.861-0.666v-1.115
			c0-0.563,0.116-1.043,0.35-1.439c0.23-0.396,0.557-0.696,0.973-0.905c0.436-0.198,0.77-0.447,1.003-0.749
			c0.231-0.302,0.348-0.642,0.348-1.018v-0.459c0-0.25-0.076-0.478-0.23-0.685c-0.151-0.209-0.411-0.313-0.777-0.313h-0.965
			c-0.367,0-0.623,0.104-0.772,0.313c-0.148,0.207-0.222,0.435-0.222,0.685v0.594c0,0.463-0.299,0.697-0.893,0.697
			c-0.573,0-0.86-0.234-0.86-0.697v-0.729c0-0.803,0.261-1.396,0.787-1.781h-0.017c0.258-0.167,0.524-0.308,0.803-0.415
			c0.276-0.108,0.543-0.164,0.803-0.164L94.094,54.949L94.094,54.949z M94.123,65.536c0,0.346-0.116,0.636-0.35,0.868
			c-0.232,0.23-0.517,0.35-0.854,0.35c-0.336,0-0.622-0.118-0.854-0.35c-0.232-0.232-0.349-0.522-0.349-0.868
			c0-0.337,0.115-0.62,0.349-0.845c0.231-0.229,0.519-0.344,0.854-0.344c0.337,0,0.62,0.113,0.854,0.344
			C94.007,64.916,94.123,65.199,94.123,65.536z"/>
	</g>
</g>
</svg>
