<?xml version="1.0" encoding="utf-8"?>
<!-- Generator: Adobe Illustrator 16.0.0, SVG Export Plug-In . SVG Version: 6.00 Build 0)  -->
<!DOCTYPE svg PUBLIC "-//W3C//DTD SVG 1.1//EN" "http://www.w3.org/Graphics/SVG/1.1/DTD/svg11.dtd">
<svg version="1.1" id="Layer_1" xmlns="http://www.w3.org/2000/svg" xmlns:xlink="http://www.w3.org/1999/xlink" x="0px" y="0px"
	 width="430px" height="105px" viewBox="0 0 430 105" enable-background="new 0 0 430 105" xml:space="preserve">
<g>
	<g>
		<path fill="#231F20" d="M55.54,18.43c22.927,0,41.784,12.737,44.083,35.676h5.343c-0.974-26.258-22.805-47.25-49.595-47.25
			c-26.791,0-48.62,20.992-49.594,47.25h5.681C13.754,31.167,32.614,18.43,55.54,18.43z"/>
		<path d="M79.034,83.424c-0.063,0.234-0.115,0.425-0.133,0.477c-0.184,0.534-0.395,1.062-0.646,1.574
			c-0.48,0.973-1.085,2.026-1.974,2.735c-1.269,1.012-2.988,1.274-4.611,1.358c-2.313,0.119-4.818,0.173-6.946-0.804
			c-0.545-0.252-1.058-0.583-1.511-0.959c-3.503-2.904-3.564-7.693-3.493-11.699c0.049-2.765-0.004-5.545-0.01-8.313
			c-0.006-3.718,0.006-7.436-0.009-11.151c-0.013-3.333,0.015-6.664-0.005-9.994c-0.01-1.619,0.08-3.263-0.002-4.878
			c0-0.007-0.006-0.088-0.008-0.088c-0.002,0-8.449,0-8.449,0v37.45c0,0.185,0.006,0.365,0.012,0.547h0.016
			c0.092,2.985,0.514,4.549,1.527,7.205c1.146,2.995,3.051,6.242,5.725,8.308c3.463,2.672,8.29,3.385,12.681,3.118
			c1.354-0.082,2.731-0.269,4.054-0.56c3.005-0.655,5.905-1.907,8.129-3.911c1.604-1.443,2.776-3.222,3.383-5.209
			c0.206-0.676,0.374-1.362,0.538-2.049c0.215-0.895,0.412-1.791,0.652-2.68c0.041-0.155,0.084-0.313,0.126-0.47L79.034,83.424z"/>
	</g>
	<g>
		<path fill="#231F20" d="M155.924,79.759c0,2.383-1.458,3.573-4.371,3.573c-2.913,0-4.37-1.19-4.37-3.573V64.414
			c0-0.197-0.025-0.371-0.074-0.521c-0.049-0.148-0.246-0.224-0.588-0.224H122.06c-1.813,0-2.729-1.253-2.755-3.762
			c-0.024-2.507,0.895-3.762,2.755-3.762h29.237c1.762,0,2.975,0.46,3.637,1.379c0.66,0.919,0.991,1.948,0.991,3.091V79.759z
			 M168.779,36.485c0,4.568-1.775,8.504-5.325,11.806c-3.551,3.303-7.872,4.953-12.965,4.953c-5.192,0-9.562-1.638-13.112-4.916
			c-3.552-3.277-5.327-7.226-5.327-11.843c0-4.618,1.774-8.565,5.327-11.843c3.55-3.276,7.92-4.915,13.112-4.915
			c5.093,0,9.414,1.651,12.965,4.952C167.004,27.982,168.779,31.917,168.779,36.485z M160.037,36.485
			c0-2.582-0.942-4.767-2.827-6.555c-1.887-1.788-4.126-2.682-6.722-2.682c-2.646,0-4.897,0.894-6.759,2.682
			c-1.861,1.788-2.792,3.973-2.792,6.555c0,2.582,0.931,4.767,2.792,6.555c1.861,1.788,4.112,2.682,6.759,2.682
			c2.596,0,4.835-0.894,6.722-2.682C159.094,41.251,160.037,39.067,160.037,36.485z"/>
		<path fill="#231F20" d="M217.26,53.988c0.783,2.284-0.195,3.898-2.938,4.842c-2.744,0.943-4.506,0.272-5.289-2.012l-9.476-29.123
			l-14.104,42.977c-0.784,2.282-2.548,2.954-5.29,2.01c-2.743-0.941-3.722-2.557-2.938-4.842l14.398-43.943
			c0.783-2.282,2.546-2.93,5.289-1.937c1.224,0.447,2.105,1.019,2.646,1.714c0.538-0.695,1.419-1.267,2.645-1.714
			c2.741-0.993,4.505-0.346,5.289,1.937L217.26,53.988z M206.755,85.046c-1.762,0-2.975-0.461-3.636-1.378
			c-0.661-0.92-0.992-1.949-0.992-3.091v-17.65c0-2.386,1.457-3.576,4.371-3.576c2.912,0,4.37,1.19,4.37,3.576v13.852
			c0,0.199,0.024,0.373,0.074,0.521c0.047,0.148,0.243,0.224,0.587,0.224h33.054c1.813,0,2.73,1.255,2.756,3.762
			c0.023,2.506-0.895,3.761-2.756,3.761H206.755z M232.319,62.181c0,2.384-1.456,3.575-4.37,3.575c-2.915,0-4.372-1.191-4.372-3.575
			v-38.58c0-2.385,1.457-3.576,4.372-3.576c2.914,0,4.37,1.191,4.37,3.576V62.181z M246.056,40.656c0,1.59-0.551,2.942-1.653,4.06
			c-1.102,1.116-2.438,1.676-4.003,1.676c-1.567,0-2.901-0.56-4.003-1.676c-1.104-1.117-1.653-2.47-1.653-4.06
			c0-1.589,0.552-2.942,1.653-4.059c1.102-1.118,2.436-1.677,4.003-1.677c1.565,0,2.901,0.559,4.003,1.677
			C245.505,37.713,246.056,39.067,246.056,40.656z"/>
		<path fill="#231F20" d="M289.614,39.166c0,5.115-1.787,9.51-5.362,13.184c-1.518,1.54-3.183,2.781-4.995,3.724
			c0.441,0.05,0.857,0.175,1.25,0.373c0.687,0.349,1.271,0.968,1.762,1.862l8.229,15.045l8.228-15.045
			c0.49-0.896,1.077-1.516,1.764-1.862c0.686-0.347,1.471-0.521,2.352-0.521c0.929,0,1.737,0.174,2.423,0.521
			s1.273,0.968,1.764,1.862l11.827,21.675c1.42,2.579,0.832,4.394-1.764,5.436c-2.595,1.043-4.407,0.646-5.436-1.19l-8.74-16.089
			l-8.816,16.089c-0.344,0.644-0.834,1.091-1.469,1.34c-0.637,0.248-1.299,0.347-1.983,0.298c-0.783,0.049-1.506-0.05-2.168-0.298
			c-0.66-0.249-1.188-0.696-1.578-1.34l-8.742-16.089l-8.813,16.089c-1.028,1.836-2.842,2.233-5.436,1.19
			c-2.598-1.042-3.186-2.855-1.764-5.436l11.827-21.675c0.146-0.248,0.293-0.496,0.44-0.745c-0.979,0.147-2.009,0.224-3.085,0.224
			c-5.192,0-9.562-1.813-13.112-5.437c-3.552-3.624-5.327-8.019-5.327-13.184c0-5.164,1.775-9.559,5.327-13.184
			c3.551-3.624,7.92-5.437,13.112-5.437c5.093,0,9.412,1.813,12.964,5.437C287.839,29.608,289.614,34.002,289.614,39.166z
			 M280.874,39.166c0-3.078-0.942-5.697-2.828-7.858c-1.886-2.16-4.126-3.239-6.721-3.239c-2.645,0-4.899,1.079-6.757,3.239
			c-1.862,2.161-2.793,4.78-2.793,7.858c0,3.029,0.931,5.637,2.793,7.821c1.857,2.187,4.112,3.277,6.757,3.277
			c2.595,0,4.835-1.091,6.721-3.277C279.931,44.803,280.874,42.195,280.874,39.166z M310.477,51.008c0,2.383-1.457,3.575-4.37,3.575
			s-4.37-1.191-4.37-3.575V23.525c0-2.383,1.457-3.575,4.37-3.575s4.37,1.192,4.37,3.575V51.008z"/>
		<path fill="#231F20" d="M359.766,47.284c0,7.2-1.651,13.406-4.958,18.62c-3.306,5.214-7.799,7.82-13.478,7.82
			c-5.633,0-10.138-2.581-13.518-7.746c-3.378-5.164-5.067-11.396-5.067-18.694c0-7.299,1.689-13.53,5.067-18.695
			c3.38-5.162,7.885-7.745,13.518-7.745c5.728,0,10.232,2.595,13.516,7.782C358.126,33.816,359.766,40.036,359.766,47.284z
			 M351.172,47.284c0-5.312-0.845-9.795-2.534-13.444c-1.689-3.649-4.126-5.475-7.309-5.475c-3.086,0-5.497,1.825-7.235,5.475
			c-1.739,3.649-2.608,8.132-2.608,13.444c0,5.313,0.869,9.794,2.608,13.443c1.738,3.649,4.149,5.475,7.235,5.475
			c3.183,0,5.619-1.825,7.309-5.475C350.327,57.077,351.172,52.599,351.172,47.284z M371.227,46.615
			c0,1.589-0.551,2.941-1.651,4.059c-1.104,1.117-2.438,1.676-4.006,1.676c-1.567,0-2.9-0.559-4.003-1.676
			c-1.102-1.117-1.651-2.47-1.651-4.059s0.551-2.942,1.651-4.06c1.103-1.118,2.436-1.677,4.003-1.677
			c1.568,0,2.901,0.559,4.006,1.677C370.676,43.672,371.227,45.026,371.227,46.615z M380.261,79.759
			c0,2.383-1.456,3.573-4.369,3.573c-2.914,0-4.37-1.19-4.37-3.573V23.601c0-2.385,1.456-3.576,4.37-3.576
			c2.913,0,4.369,1.191,4.369,3.576V79.759z"/>
		<path fill="#231F20" d="M413.023,22.258c1.175,0,2.46,0.273,3.856,0.819c1.396,0.548,2.729,1.24,4.002,2.085h-0.071
			c1.271,0.942,2.251,2.172,2.937,3.687c0.687,1.516,1.029,3.267,1.029,5.251v3.575c0,4.618-2.205,8.367-6.611,11.247
			c-4.407,2.83-6.612,5.711-6.612,8.641v5.733c0,2.137-1.469,3.254-4.407,3.354c-2.841,0-4.261-1.117-4.261-3.354v-5.586
			c0-2.83,0.576-5.237,1.728-7.225c1.148-1.985,2.755-3.5,4.813-4.543c2.153-0.993,3.807-2.247,4.957-3.762
			c1.15-1.514,1.728-3.214,1.728-5.102v-2.31c0-1.24-0.382-2.384-1.14-3.427c-0.76-1.043-2.046-1.563-3.855-1.563h-4.776
			c-1.812,0-3.085,0.521-3.818,1.563c-0.734,1.043-1.103,2.187-1.103,3.427v2.979c0,2.334-1.468,3.501-4.405,3.501
			c-2.843,0-4.262-1.167-4.262-3.501v-3.649c0-4.021,1.298-7.001,3.895-8.937h-0.072c1.271-0.845,2.593-1.538,3.966-2.085
			c1.368-0.546,2.692-0.819,3.966-0.819L413.023,22.258L413.023,22.258z M413.17,75.364c0,1.738-0.576,3.189-1.727,4.357
			c-1.152,1.165-2.56,1.749-4.224,1.749c-1.666,0-3.073-0.584-4.225-1.749c-1.151-1.168-1.727-2.619-1.727-4.357
			c0-1.688,0.573-3.104,1.727-4.246c1.149-1.142,2.559-1.713,4.225-1.713c1.664,0,3.07,0.571,4.224,1.713
			C412.594,72.262,413.17,73.676,413.17,75.364z"/>
	</g>
</g>
</svg>
