<?xml version="1.0" encoding="utf-8"?>
<!-- Generator: Adobe Illustrator 16.0.0, SVG Export Plug-In . SVG Version: 6.00 Build 0)  -->
<!DOCTYPE svg PUBLIC "-//W3C//DTD SVG 1.1//EN" "http://www.w3.org/Graphics/SVG/1.1/DTD/svg11.dtd">
<svg version="1.1" id="Layer_1" xmlns="http://www.w3.org/2000/svg" xmlns:xlink="http://www.w3.org/1999/xlink" x="0px" y="0px"
	 width="135px" height="135px" viewBox="0 0 135 135" enable-background="new 0 0 135 135" xml:space="preserve">
<g>
	<g>
		<g>
			<path fill="#231F20" d="M67.504,28.121c22.375,0,40.781,12.432,43.023,34.818h5.215c-0.951-25.627-22.256-46.115-48.404-46.115
				c-26.147,0-47.452,20.488-48.404,46.115h5.544C26.722,40.553,45.128,28.121,67.504,28.121z"/>
			<path d="M90.436,104.239c-0.063,0.229-0.113,0.415-0.131,0.465c-0.18,0.521-0.385,1.039-0.63,1.538
				c-0.469,0.949-1.06,1.979-1.927,2.67c-1.236,0.987-2.917,1.245-4.5,1.326c-2.26,0.117-4.703,0.168-6.78-0.785
				c-0.532-0.245-1.032-0.569-1.475-0.936c-3.419-2.834-3.479-7.51-3.409-11.418c0.048-2.698-0.004-5.412-0.009-8.112
				c-0.007-3.629,0.005-7.258-0.011-10.886c-0.01-3.252,0.017-6.504-0.002-9.755c-0.011-1.579,0.076-3.185-0.004-4.761
				c0-0.008-0.004-0.086-0.008-0.086c-0.002,0-8.246,0-8.246,0v36.551c0,0.181,0.006,0.356,0.012,0.534h0.014
				c0.09,2.914,0.501,4.438,1.491,7.032c1.118,2.924,2.979,6.093,5.588,8.107c3.378,2.606,8.09,3.303,12.375,3.044
				c1.322-0.08,2.666-0.265,3.957-0.547c2.934-0.642,5.764-1.86,7.935-3.817c1.563-1.409,2.708-3.145,3.302-5.083
				c0.201-0.661,0.363-1.33,0.525-1.999c0.208-0.873,0.402-1.75,0.635-2.617c0.041-0.15,0.082-0.305,0.123-0.457L90.436,104.239z"/>
		</g>
		<g>
			<path fill="#231F20" d="M42.494,58.304c0,0.507-0.314,0.764-0.943,0.764c-0.63,0-0.944-0.257-0.944-0.764v-3.269
				c0-0.042-0.006-0.078-0.016-0.11c-0.011-0.03-0.053-0.048-0.127-0.048h-5.282c-0.392,0-0.59-0.267-0.596-0.8
				c-0.005-0.534,0.193-0.803,0.596-0.803h6.313c0.381,0,0.643,0.099,0.785,0.293c0.143,0.195,0.214,0.416,0.214,0.66V58.304z
				 M45.27,49.087c0,0.975-0.383,1.812-1.15,2.514c-0.766,0.704-1.7,1.058-2.799,1.058c-1.121,0-2.065-0.351-2.831-1.049
				c-0.767-0.697-1.15-1.538-1.15-2.521c0-0.982,0.383-1.823,1.15-2.521c0.766-0.699,1.71-1.049,2.831-1.049
				c1.1,0,2.033,0.354,2.799,1.057C44.887,47.276,45.27,48.115,45.27,49.087z M43.382,49.087c0-0.549-0.203-1.016-0.611-1.395
				c-0.407-0.382-0.891-0.572-1.451-0.572c-0.571,0-1.058,0.19-1.459,0.572c-0.402,0.379-0.604,0.846-0.604,1.395
				c0,0.551,0.201,1.017,0.604,1.397c0.401,0.379,0.888,0.568,1.459,0.568c0.56,0,1.044-0.189,1.451-0.568
				C43.179,50.104,43.382,49.638,43.382,49.087z"/>
			<path fill="#231F20" d="M55.739,52.815c0.17,0.484-0.042,0.829-0.633,1.029c-0.593,0.202-0.974,0.061-1.143-0.429l-2.047-6.201
				l-3.045,9.153c-0.17,0.486-0.55,0.629-1.143,0.427c-0.592-0.2-0.803-0.543-0.634-1.03l3.108-9.358
				c0.169-0.486,0.55-0.624,1.143-0.412c0.264,0.096,0.455,0.217,0.571,0.364c0.116-0.147,0.307-0.27,0.572-0.364
				c0.592-0.212,0.973-0.074,1.142,0.412L55.739,52.815z M53.472,59.43c-0.381,0-0.643-0.097-0.785-0.293
				c-0.143-0.195-0.215-0.416-0.215-0.656v-3.762c0-0.507,0.314-0.762,0.944-0.762c0.629,0,0.943,0.255,0.943,0.762v2.95
				c0,0.042,0.006,0.08,0.017,0.11c0.01,0.033,0.052,0.048,0.126,0.048h7.138c0.392,0,0.59,0.269,0.596,0.803
				c0.005,0.533-0.193,0.8-0.596,0.8H53.472L53.472,59.43z M58.992,54.561c0,0.508-0.314,0.762-0.943,0.762
				c-0.63,0-0.944-0.254-0.944-0.762v-8.218c0-0.507,0.314-0.762,0.944-0.762c0.629,0,0.943,0.255,0.943,0.762V54.561z
				 M61.958,49.976c0,0.34-0.119,0.628-0.356,0.865c-0.238,0.238-0.526,0.356-0.865,0.356c-0.338,0-0.626-0.118-0.864-0.356
				c-0.238-0.238-0.356-0.525-0.356-0.865c0-0.338,0.118-0.627,0.356-0.864c0.238-0.236,0.526-0.356,0.864-0.356
				c0.339,0,0.627,0.12,0.865,0.356C61.839,49.349,61.958,49.638,61.958,49.976z"/>
			<path fill="#231F20" d="M71.365,49.659c0,1.088-0.387,2.022-1.158,2.807c-0.328,0.328-0.688,0.593-1.079,0.793
				c0.097,0.013,0.185,0.038,0.271,0.08c0.146,0.074,0.273,0.206,0.381,0.396l1.775,3.204l1.777-3.204
				c0.104-0.19,0.232-0.322,0.38-0.396s0.317-0.109,0.509-0.109c0.2,0,0.375,0.035,0.522,0.109s0.274,0.206,0.381,0.396l2.554,4.616
				c0.307,0.551,0.18,0.936-0.381,1.157c-0.561,0.223-0.951,0.139-1.173-0.253l-1.89-3.427l-1.902,3.427
				c-0.074,0.138-0.18,0.232-0.316,0.284c-0.139,0.053-0.281,0.074-0.43,0.064c-0.168,0.01-0.324-0.013-0.468-0.064
				s-0.257-0.146-0.341-0.284l-1.889-3.427l-1.903,3.427c-0.223,0.392-0.613,0.476-1.174,0.253s-0.688-0.606-0.381-1.157
				l2.554-4.616c0.033-0.054,0.063-0.106,0.095-0.158c-0.212,0.03-0.434,0.048-0.666,0.048c-1.121,0-2.065-0.387-2.832-1.159
				c-0.766-0.771-1.15-1.707-1.15-2.807c0-1.101,0.384-2.037,1.15-2.811c0.767-0.771,1.711-1.155,2.832-1.155
				c1.1,0,2.033,0.385,2.799,1.155C70.982,47.622,71.365,48.56,71.365,49.659z M69.479,49.659c0-0.655-0.205-1.214-0.611-1.674
				c-0.407-0.461-0.891-0.691-1.451-0.691c-0.571,0-1.058,0.23-1.46,0.691c-0.401,0.46-0.603,1.019-0.603,1.674
				c0,0.644,0.201,1.2,0.603,1.665c0.402,0.466,0.889,0.697,1.46,0.697c0.56,0,1.044-0.231,1.451-0.697
				C69.273,50.859,69.479,50.303,69.479,49.659z M75.871,52.181c0,0.51-0.314,0.763-0.943,0.763c-0.63,0-0.943-0.253-0.943-0.763
				v-5.853c0-0.51,0.313-0.763,0.943-0.763c0.629,0,0.943,0.253,0.943,0.763V52.181z"/>
			<path fill="#231F20" d="M86.516,51.388c0,1.534-0.357,2.854-1.072,3.966c-0.713,1.111-1.684,1.666-2.91,1.666
				c-1.217,0-2.189-0.551-2.92-1.649c-0.729-1.099-1.094-2.427-1.094-3.981c0-1.556,0.364-2.882,1.094-3.98
				c0.73-1.1,1.703-1.65,2.92-1.65c1.238,0,2.21,0.553,2.918,1.658C86.161,48.52,86.516,49.844,86.516,51.388z M84.659,51.388
				c0-1.132-0.183-2.087-0.548-2.861c-0.364-0.778-0.891-1.167-1.578-1.167c-0.666,0-1.188,0.389-1.563,1.167
				c-0.375,0.774-0.563,1.729-0.563,2.861s0.188,2.087,0.563,2.862c0.375,0.777,0.896,1.166,1.563,1.166
				c0.688,0,1.214-0.389,1.578-1.166C84.477,53.475,84.659,52.52,84.659,51.388z M88.99,51.245c0,0.339-0.119,0.627-0.357,0.865
				c-0.236,0.236-0.525,0.354-0.863,0.354s-0.627-0.118-0.865-0.354c-0.238-0.238-0.357-0.526-0.357-0.865
				c0-0.338,0.119-0.628,0.357-0.865c0.236-0.236,0.525-0.355,0.865-0.355c0.338,0,0.627,0.119,0.863,0.355
				C88.871,50.617,88.99,50.907,88.99,51.245z M90.941,58.304c0,0.507-0.315,0.764-0.944,0.764s-0.944-0.257-0.944-0.764V46.343
				c0-0.507,0.315-0.762,0.944-0.762s0.944,0.255,0.944,0.762V58.304z"/>
			<path fill="#231F20" d="M98.016,46.057c0.254,0,0.532,0.061,0.834,0.177c0.301,0.115,0.59,0.265,0.863,0.443h-0.015
				c0.274,0.2,0.485,0.463,0.635,0.785c0.147,0.322,0.222,0.695,0.222,1.118v0.761c0,0.983-0.476,1.782-1.428,2.396
				c-0.952,0.603-1.427,1.216-1.427,1.841V54.8c0,0.454-0.317,0.692-0.952,0.713c-0.614,0-0.919-0.237-0.919-0.713v-1.19
				c0-0.603,0.124-1.114,0.373-1.537c0.248-0.424,0.594-0.746,1.039-0.97c0.466-0.211,0.821-0.479,1.071-0.8
				c0.248-0.322,0.373-0.685,0.373-1.087v-0.491c0-0.266-0.082-0.509-0.246-0.729c-0.164-0.224-0.441-0.333-0.834-0.333h-1.03
				c-0.392,0-0.666,0.109-0.825,0.333c-0.158,0.222-0.236,0.465-0.236,0.729v0.635c0,0.495-0.318,0.745-0.953,0.745
				c-0.613,0-0.92-0.25-0.92-0.745v-0.777c0-0.857,0.28-1.492,0.842-1.903h-0.017c0.274-0.18,0.562-0.328,0.857-0.443
				c0.295-0.116,0.581-0.177,0.856-0.177h1.836V46.057z M98.047,57.368c0,0.369-0.124,0.681-0.373,0.928
				c-0.249,0.248-0.553,0.374-0.912,0.374s-0.664-0.126-0.912-0.374c-0.248-0.247-0.373-0.559-0.373-0.928
				c0-0.36,0.125-0.661,0.373-0.903c0.248-0.244,0.553-0.366,0.912-0.366s0.663,0.122,0.912,0.366
				C97.923,56.707,98.047,57.008,98.047,57.368z"/>
		</g>
	</g>
	<circle fill="none" stroke="#231F20" stroke-miterlimit="10" cx="67.337" cy="67.821" r="65"/>
</g>
</svg>
