<?xml version="1.0" encoding="utf-8"?>
<!-- Generator: Adobe Illustrator 16.0.0, SVG Export Plug-In . SVG Version: 6.00 Build 0)  -->
<!DOCTYPE svg PUBLIC "-//W3C//DTD SVG 1.1//EN" "http://www.w3.org/Graphics/SVG/1.1/DTD/svg11.dtd">
<svg version="1.1" id="Layer_1" xmlns="http://www.w3.org/2000/svg" xmlns:xlink="http://www.w3.org/1999/xlink" x="0px" y="0px"
	 width="135px" height="135px" viewBox="0 0 135 135" enable-background="new 0 0 135 135" xml:space="preserve">
<g>
	<g>
		<g>
			<path fill="#231F20" d="M68.787,40.08c17.962,0,32.739,9.979,34.539,27.952h4.187c-0.764-20.573-17.867-37.021-38.858-37.021
				c-20.99,0-38.095,16.447-38.858,37.021h4.45C36.047,50.061,50.824,40.08,68.787,40.08z"/>
			<path d="M87.195,100.762c-0.05,0.187-0.093,0.333-0.104,0.374c-0.146,0.418-0.31,0.833-0.507,1.233
				c-0.377,0.762-0.851,1.588-1.546,2.144c-0.994,0.793-2.343,0.999-3.613,1.065c-1.813,0.093-3.773,0.135-5.442-0.631
				c-0.428-0.197-0.829-0.457-1.185-0.751c-2.745-2.275-2.792-6.028-2.737-9.166c0.039-2.167-0.003-4.347-0.007-6.514
				c-0.005-2.913,0.004-5.825-0.007-8.737c-0.011-2.611,0.012-5.223-0.004-7.831c-0.008-1.27,0.063-2.558-0.003-3.822
				c0-0.006-0.004-0.068-0.006-0.068c-0.001,0-6.619,0-6.619,0V97.4c0,0.144,0.005,0.284,0.01,0.428h0.011
				c0.072,2.339,0.403,3.563,1.198,5.646c0.896,2.349,2.391,4.893,4.485,6.51c2.712,2.094,6.496,2.65,9.935,2.442
				c1.063-0.063,2.142-0.211,3.176-0.438c2.356-0.516,4.629-1.495,6.371-3.065c1.255-1.131,2.174-2.522,2.65-4.081
				c0.161-0.53,0.292-1.066,0.421-1.604c0.168-0.7,0.323-1.403,0.51-2.101c0.034-0.121,0.066-0.245,0.102-0.367L87.195,100.762z"/>
		</g>
		<g>
			<path fill="#231F20" d="M34.288,46.677c0,0.766-0.354,1.384-0.791,1.384c-0.438,0-0.791-0.618-0.791-1.384
				c0-0.765,0.791-5.471,0.791-5.471S34.288,45.912,34.288,46.677z"/>
			<path fill="#231F20" d="M42.566,38.843c0,0.766-0.354,1.386-0.791,1.386c-0.438,0-0.791-0.62-0.791-1.386
				c0-0.764,0.791-5.47,0.791-5.47S42.566,38.079,42.566,38.843z"/>
			<path fill="#231F20" d="M52.41,31.304c0,0.766-0.354,1.384-0.79,1.384s-0.791-0.618-0.791-1.384c0-0.765,0.791-5.471,0.791-5.471
				S52.41,30.539,52.41,31.304z"/>
			<path fill="#231F20" d="M103.788,46.285c0,0.765,0.354,1.384,0.791,1.384s0.791-0.619,0.791-1.384
				c0-0.766-0.791-5.471-0.791-5.471S103.788,45.521,103.788,46.285z"/>
			<path fill="#231F20" d="M95.38,38.843c0,0.766,0.354,1.386,0.791,1.386c0.438,0,0.791-0.62,0.791-1.386
				c0-0.764-0.791-5.47-0.791-5.47S95.38,38.079,95.38,38.843z"/>
			<path fill="#231F20" d="M85.534,31.304c0,0.766,0.354,1.384,0.791,1.384c0.437,0,0.791-0.618,0.791-1.384
				c0-0.765-0.791-5.471-0.791-5.471S85.534,30.539,85.534,31.304z"/>
			<path fill="#231F20" d="M70.62,25.589c0,1.703-0.881,3.084-1.966,3.084c-1.086,0-1.966-1.381-1.966-3.084
				c0-1.704,1.966-12.19,1.966-12.19S70.62,23.885,70.62,25.589z"/>
		</g>
		<g>
			<path fill="#231F20" d="M47.533,64.432c0,0.436-0.27,0.652-0.808,0.652c-0.539,0-0.809-0.218-0.809-0.652v-2.796
				c0-0.036-0.004-0.066-0.013-0.096c-0.011-0.025-0.045-0.04-0.108-0.04h-4.521c-0.335,0-0.505-0.229-0.511-0.686
				c-0.004-0.456,0.166-0.688,0.511-0.688h5.402c0.326,0,0.55,0.086,0.671,0.252c0.123,0.168,0.185,0.355,0.185,0.564V64.432
				L47.533,64.432z M49.909,56.545c0,0.833-0.328,1.55-0.984,2.152c-0.655,0.601-1.455,0.901-2.396,0.901
				c-0.96,0-1.769-0.299-2.423-0.896c-0.657-0.598-0.983-1.316-0.983-2.158s0.326-1.561,0.983-2.157
				c0.654-0.599,1.463-0.896,2.423-0.896c0.939,0,1.739,0.301,2.396,0.902S49.909,55.713,49.909,56.545z M48.294,56.545
				c0-0.47-0.173-0.869-0.523-1.193c-0.348-0.326-0.762-0.488-1.24-0.488c-0.489,0-0.905,0.162-1.248,0.488
				c-0.347,0.324-0.518,0.725-0.518,1.193c0,0.472,0.171,0.869,0.518,1.196c0.343,0.323,0.759,0.486,1.248,0.486
				c0.479,0,0.894-0.163,1.24-0.486C48.121,57.414,48.294,57.017,48.294,56.545z"/>
			<path fill="#231F20" d="M58.869,59.735c0.146,0.416-0.036,0.711-0.542,0.883c-0.508,0.172-0.834,0.05-0.979-0.367l-1.752-5.308
				l-2.604,7.833c-0.146,0.416-0.471,0.538-0.979,0.365c-0.508-0.171-0.688-0.466-0.543-0.883l2.661-8.01
				c0.146-0.416,0.47-0.534,0.978-0.352c0.226,0.081,0.39,0.185,0.487,0.312c0.101-0.127,0.264-0.229,0.49-0.312
				c0.506-0.184,0.832-0.064,0.977,0.352L58.869,59.735z M56.929,65.396c-0.326,0-0.55-0.084-0.673-0.252
				c-0.121-0.169-0.184-0.354-0.184-0.563v-3.218c0-0.434,0.27-0.653,0.809-0.653c0.538,0,0.808,0.221,0.808,0.653v2.524
				c0,0.036,0.006,0.068,0.015,0.095c0.009,0.027,0.045,0.041,0.108,0.041h6.107c0.335,0,0.505,0.229,0.511,0.688
				c0.003,0.455-0.166,0.686-0.511,0.686L56.929,65.396L56.929,65.396z M61.651,61.229c0,0.436-0.27,0.651-0.808,0.651
				s-0.808-0.217-0.808-0.651v-7.031c0-0.435,0.27-0.652,0.808-0.652s0.808,0.219,0.808,0.652V61.229z M64.191,57.305
				c0,0.291-0.103,0.537-0.307,0.741c-0.204,0.203-0.45,0.304-0.74,0.304s-0.535-0.101-0.739-0.304
				c-0.203-0.204-0.306-0.45-0.306-0.741c0-0.288,0.103-0.536,0.306-0.738c0.204-0.203,0.449-0.307,0.739-0.307
				s0.536,0.104,0.74,0.307C64.089,56.769,64.191,57.017,64.191,57.305z"/>
			<path fill="#231F20" d="M72.241,57.035c0,0.93-0.329,1.73-0.991,2.4c-0.279,0.281-0.589,0.509-0.923,0.68
				c0.082,0.009,0.159,0.033,0.23,0.067c0.126,0.063,0.234,0.178,0.325,0.339l1.521,2.743l1.521-2.743
				c0.089-0.161,0.199-0.274,0.325-0.339c0.127-0.063,0.271-0.095,0.437-0.095c0.172,0,0.32,0.031,0.446,0.095
				c0.127,0.063,0.235,0.178,0.325,0.339l2.188,3.951c0.263,0.473,0.153,0.801-0.326,0.991c-0.48,0.189-0.813,0.117-1.004-0.217
				l-1.616-2.932l-1.629,2.932c-0.063,0.117-0.154,0.199-0.271,0.243c-0.118,0.045-0.239,0.063-0.367,0.056
				c-0.144,0.007-0.276-0.011-0.399-0.056c-0.121-0.044-0.221-0.126-0.292-0.243l-1.615-2.932l-1.628,2.932
				c-0.191,0.334-0.525,0.406-1.005,0.217c-0.48-0.19-0.589-0.52-0.327-0.991l2.187-3.951c0.027-0.046,0.055-0.091,0.081-0.135
				c-0.181,0.026-0.369,0.041-0.569,0.041c-0.958,0-1.768-0.332-2.423-0.992c-0.656-0.659-0.984-1.461-0.984-2.4
				c0-0.941,0.328-1.745,0.984-2.405c0.655-0.66,1.465-0.989,2.423-0.989c0.94,0,1.741,0.329,2.396,0.989
				S72.241,56.094,72.241,57.035z M70.625,57.035c0-0.563-0.174-1.041-0.521-1.435c-0.351-0.395-0.765-0.592-1.243-0.592
				c-0.487,0-0.904,0.197-1.249,0.592c-0.344,0.394-0.517,0.871-0.517,1.435c0,0.551,0.173,1.026,0.517,1.425
				c0.345,0.398,0.762,0.597,1.249,0.597c0.479,0,0.894-0.197,1.243-0.597C70.451,58.063,70.625,57.586,70.625,57.035z
				 M76.097,59.192c0,0.435-0.27,0.651-0.807,0.651c-0.54,0-0.809-0.218-0.809-0.651v-5.01c0-0.436,0.269-0.651,0.809-0.651
				c0.537,0,0.807,0.217,0.807,0.651V59.192z"/>
			<path fill="#231F20" d="M85.206,58.513c0,1.314-0.306,2.444-0.916,3.396c-0.611,0.952-1.44,1.426-2.492,1.426
				c-1.039,0-1.873-0.472-2.497-1.412c-0.625-0.94-0.937-2.076-0.937-3.408c0-1.33,0.312-2.465,0.937-3.405
				c0.624-0.94,1.458-1.412,2.497-1.412c1.061,0,1.893,0.474,2.499,1.418C84.903,56.06,85.206,57.192,85.206,58.513z M83.617,58.513
				c0-0.968-0.155-1.784-0.468-2.447c-0.313-0.665-0.764-0.998-1.353-0.998c-0.569,0-1.016,0.333-1.336,0.998
				c-0.322,0.663-0.481,1.479-0.481,2.447c0,0.971,0.159,1.787,0.481,2.45c0.32,0.666,0.767,0.999,1.336,0.999
				c0.589,0,1.039-0.333,1.353-0.999C83.462,60.3,83.617,59.482,83.617,58.513z M87.324,58.391c0,0.291-0.104,0.538-0.307,0.741
				c-0.202,0.203-0.449,0.306-0.739,0.306c-0.289,0-0.536-0.103-0.739-0.306c-0.205-0.203-0.306-0.45-0.306-0.741
				c0-0.288,0.101-0.535,0.306-0.739c0.203-0.202,0.45-0.306,0.739-0.306c0.29,0,0.537,0.104,0.739,0.306
				C87.222,57.854,87.324,58.104,87.324,58.391z M88.994,64.432c0,0.436-0.271,0.652-0.808,0.652c-0.538,0-0.81-0.218-0.81-0.652
				V54.197c0-0.435,0.271-0.652,0.81-0.652c0.537,0,0.808,0.219,0.808,0.652V64.432z"/>
			<path fill="#231F20" d="M95.048,53.951c0.218,0,0.456,0.052,0.713,0.149c0.259,0.101,0.505,0.229,0.74,0.381h-0.013
				c0.233,0.172,0.416,0.396,0.543,0.673c0.126,0.274,0.188,0.595,0.188,0.956v0.65c0,0.842-0.406,1.525-1.223,2.052
				c-0.813,0.516-1.222,1.039-1.222,1.574v1.046c0,0.388-0.271,0.592-0.813,0.609c-0.525,0-0.788-0.204-0.788-0.609v-1.02
				c0-0.516,0.106-0.954,0.32-1.316c0.211-0.361,0.508-0.638,0.888-0.827c0.398-0.183,0.703-0.409,0.917-0.687
				c0.213-0.275,0.318-0.586,0.318-0.93v-0.421c0-0.229-0.069-0.437-0.211-0.624c-0.14-0.191-0.377-0.286-0.712-0.286h-0.883
				c-0.336,0-0.569,0.095-0.705,0.286c-0.138,0.188-0.203,0.396-0.203,0.624v0.544c0,0.423-0.272,0.637-0.814,0.637
				c-0.525,0-0.788-0.214-0.788-0.637v-0.667c0-0.733,0.239-1.276,0.72-1.629h-0.014c0.235-0.152,0.479-0.28,0.733-0.381
				c0.253-0.099,0.496-0.149,0.731-0.149L95.048,53.951L95.048,53.951z M95.075,63.632c0,0.315-0.106,0.581-0.318,0.794
				c-0.214,0.212-0.473,0.319-0.78,0.319c-0.307,0-0.568-0.107-0.779-0.319c-0.214-0.213-0.319-0.479-0.319-0.794
				c0-0.309,0.105-0.565,0.319-0.771c0.211-0.21,0.473-0.313,0.779-0.313c0.308,0,0.566,0.104,0.78,0.313
				C94.969,63.065,95.075,63.323,95.075,63.632z"/>
		</g>
	</g>
	<circle fill="none" stroke="#231F20" stroke-miterlimit="10" cx="68.654" cy="67.933" r="65"/>
</g>
</svg>
