<?xml version="1.0" encoding="utf-8"?>
<!-- Generator: Adobe Illustrator 16.0.0, SVG Export Plug-In . SVG Version: 6.00 Build 0)  -->
<!DOCTYPE svg PUBLIC "-//W3C//DTD SVG 1.1//EN" "http://www.w3.org/Graphics/SVG/1.1/DTD/svg11.dtd">
<svg version="1.1" id="Layer_1" xmlns="http://www.w3.org/2000/svg" xmlns:xlink="http://www.w3.org/1999/xlink" x="0px" y="0px"
	 width="110px" height="100px" viewBox="0 0 110 100" enable-background="new 0 0 110 100" xml:space="preserve">
<g>
	<path fill="#231F20" d="M55.064,15.618c23.113,0,42.125,12.841,44.442,35.966h5.388c-0.982-26.471-22.99-47.635-50.001-47.635
		c-27.009,0-49.016,21.164-49.999,47.635h5.727C12.938,28.459,31.95,15.618,55.064,15.618z"/>
	<path d="M78.751,81.142c-0.063,0.237-0.117,0.43-0.135,0.48c-0.186,0.539-0.398,1.072-0.65,1.589
		c-0.484,0.98-1.094,2.042-1.99,2.757c-1.277,1.021-3.012,1.284-4.648,1.37c-2.333,0.119-4.857,0.175-7.003-0.812
		c-0.55-0.254-1.067-0.587-1.524-0.967c-3.531-2.928-3.593-7.757-3.521-11.794c0.05-2.788-0.004-5.591-0.009-8.38
		c-0.006-3.748,0.005-7.497-0.009-11.243c-0.012-3.359,0.015-6.717-0.004-10.076c-0.01-1.632,0.08-3.289-0.004-4.917
		c0-0.007-0.004-0.089-0.008-0.089c-0.002,0-8.519,0-8.519,0v37.755c0,0.187,0.006,0.368,0.013,0.553h0.015
		c0.092,3.009,0.517,4.585,1.541,7.263c1.154,3.021,3.076,6.294,5.771,8.376c3.49,2.694,8.357,3.411,12.784,3.144
		c1.366-0.083,2.755-0.271,4.087-0.563c3.031-0.663,5.953-1.923,8.196-3.944c1.616-1.455,2.799-3.247,3.41-5.251
		c0.209-0.683,0.377-1.374,0.543-2.065c0.216-0.902,0.415-1.807,0.657-2.702c0.041-0.156,0.084-0.315,0.127-0.475L78.751,81.142z"/>
</g>
</svg>
