<?xml version="1.0" encoding="utf-8"?>
<!-- Generator: Adobe Illustrator 16.0.0, SVG Export Plug-In . SVG Version: 6.00 Build 0)  -->
<!DOCTYPE svg PUBLIC "-//W3C//DTD SVG 1.1//EN" "http://www.w3.org/Graphics/SVG/1.1/DTD/svg11.dtd">
<svg version="1.1" id="Layer_1" xmlns="http://www.w3.org/2000/svg" xmlns:xlink="http://www.w3.org/1999/xlink" x="0px" y="0px"
	 width="135px" height="135px" viewBox="0 0 135 135" enable-background="new 0 0 135 135" xml:space="preserve">
<g>
	<g>
		<g>
			<path fill="#231F20" d="M69.447,20.805c22.375,0,40.781,12.433,43.023,34.818h5.215C116.734,29.996,95.43,9.508,69.281,9.508
				c-26.147,0-47.452,20.488-48.404,46.115h5.544C28.665,33.236,47.071,20.805,69.447,20.805z"/>
			<path d="M92.377,84.238c-0.063,0.229-0.113,0.414-0.13,0.465c-0.181,0.521-0.386,1.037-0.631,1.537
				c-0.47,0.947-1.06,1.978-1.927,2.67c-1.237,0.986-2.918,1.244-4.5,1.326c-2.26,0.115-4.703,0.169-6.78-0.785
				c-0.533-0.246-1.033-0.569-1.476-0.937c-3.418-2.834-3.479-7.509-3.408-11.418c0.048-2.697-0.004-5.412-0.01-8.112
				c-0.007-3.628,0.006-7.258-0.01-10.886c-0.011-3.252,0.016-6.503-0.003-9.755c-0.01-1.58,0.077-3.184-0.003-4.761
				c0-0.006-0.005-0.085-0.008-0.085c-0.002,0-8.246,0-8.246,0v36.551c0,0.18,0.006,0.356,0.012,0.533h0.014
				c0.09,2.914,0.501,4.439,1.491,7.033c1.118,2.923,2.979,6.093,5.588,8.105c3.377,2.608,8.09,3.304,12.375,3.044
				c1.321-0.079,2.666-0.262,3.957-0.545c2.934-0.642,5.764-1.861,7.935-3.817c1.563-1.409,2.708-3.145,3.301-5.084
				c0.202-0.66,0.364-1.33,0.526-1.999c0.207-0.873,0.402-1.748,0.635-2.615c0.042-0.151,0.082-0.307,0.124-0.459L92.377,84.238z"/>
		</g>
		<g>
			<path fill="#231F20" d="M38.665,118.805c-0.31,0.543-0.801,0.623-1.473,0.238c-0.673-0.384-0.854-0.847-0.544-1.389l1.994-3.491
				c0.026-0.045,0.042-0.088,0.05-0.128c0.008-0.041-0.027-0.084-0.106-0.129l-5.644-3.224c-0.418-0.237-0.467-0.645-0.147-1.219
				c0.32-0.573,0.695-0.737,1.124-0.492l6.745,3.853c0.407,0.23,0.626,0.496,0.66,0.791c0.034,0.297-0.024,0.574-0.173,0.835
				L38.665,118.805z M47.253,110.652c-0.594,1.039-1.515,1.7-2.763,1.983c-1.249,0.284-2.46,0.09-3.635-0.581
				c-1.198-0.684-1.993-1.632-2.386-2.846c-0.393-1.214-0.291-2.345,0.31-3.396c0.6-1.051,1.521-1.716,2.767-1.992
				c1.245-0.277,2.466-0.076,3.664,0.607c1.175,0.671,1.958,1.616,2.348,2.835C47.948,108.484,47.846,109.613,47.253,110.652z
				 M45.236,109.501c0.335-0.587,0.402-1.209,0.199-1.864c-0.203-0.654-0.604-1.152-1.203-1.495c-0.61-0.349-1.246-0.44-1.908-0.279
				c-0.661,0.161-1.16,0.536-1.495,1.124c-0.336,0.587-0.405,1.206-0.208,1.858c0.197,0.651,0.601,1.151,1.211,1.5
				c0.599,0.342,1.231,0.435,1.899,0.275C44.399,110.462,44.9,110.089,45.236,109.501z"/>
			<path fill="#231F20" d="M57.814,118.191c0.089,0.627-0.247,0.991-1.009,1.095c-0.763,0.104-1.189-0.159-1.278-0.786l-1.009-7.972
				l-5.835,10.334c-0.319,0.547-0.813,0.63-1.48,0.248c-0.668-0.383-0.842-0.849-0.523-1.396l5.961-10.567
				c0.319-0.547,0.811-0.623,1.476-0.229c0.297,0.177,0.498,0.369,0.604,0.575c0.175-0.151,0.434-0.253,0.776-0.307
				c0.765-0.115,1.192,0.141,1.281,0.769L57.814,118.191z M53.515,125.644c-0.459-0.09-0.752-0.271-0.879-0.54
				c-0.127-0.269-0.161-0.552-0.104-0.845l0.887-4.54c0.12-0.611,0.559-0.845,1.319-0.695c0.76,0.146,1.08,0.527,0.96,1.142
				l-0.695,3.563c-0.01,0.052-0.013,0.098-0.007,0.138c0.005,0.041,0.052,0.07,0.142,0.088l8.619,1.683
				c0.472,0.093,0.649,0.462,0.529,1.107c-0.119,0.646-0.421,0.922-0.907,0.827L53.515,125.644z M61.329,121.064
				c-0.12,0.611-0.56,0.846-1.319,0.695c-0.76-0.146-1.08-0.527-0.96-1.142l1.937-9.921c0.12-0.613,0.56-0.847,1.319-0.697
				c0.76,0.148,1.08,0.529,0.96,1.142L61.329,121.064z M65.992,116.229c-0.08,0.409-0.292,0.729-0.635,0.961
				c-0.343,0.23-0.719,0.307-1.128,0.228c-0.409-0.08-0.729-0.292-0.96-0.636c-0.231-0.343-0.307-0.719-0.227-1.127
				c0.08-0.409,0.291-0.729,0.635-0.961c0.343-0.23,0.719-0.308,1.128-0.228c0.408,0.08,0.729,0.291,0.959,0.636
				C65.996,115.444,66.071,115.819,65.992,116.229z"/>
			<path fill="#231F20" d="M76.787,114.217c0.211,1.323-0.076,2.536-0.861,3.637c-0.334,0.463-0.72,0.854-1.156,1.174
				c0.119-0.006,0.232,0.01,0.344,0.044c0.193,0.061,0.373,0.196,0.539,0.406l2.781,3.548l1.535-4.237
				c0.092-0.252,0.221-0.438,0.385-0.556c0.166-0.119,0.364-0.196,0.596-0.233c0.244-0.039,0.463-0.027,0.658,0.032
				c0.193,0.063,0.373,0.196,0.539,0.408l4,5.11c0.479,0.607,0.4,1.104-0.236,1.48c-0.639,0.379-1.131,0.352-1.477-0.08
				l-2.959-3.795l-1.646,4.53c-0.063,0.184-0.173,0.317-0.33,0.409c-0.157,0.091-0.326,0.145-0.508,0.16
				c-0.204,0.046-0.397,0.051-0.581,0.015s-0.34-0.131-0.471-0.279l-2.959-3.796l-1.646,4.531c-0.194,0.52-0.651,0.697-1.377,0.536
				c-0.724-0.161-0.953-0.604-0.688-1.333l2.205-6.104c0.029-0.07,0.058-0.142,0.086-0.211c-0.252,0.08-0.519,0.142-0.801,0.188
				c-1.361,0.218-2.582-0.067-3.664-0.855c-1.082-0.789-1.729-1.853-1.944-3.188c-0.214-1.336,0.069-2.547,0.851-3.635
				c0.781-1.086,1.853-1.738,3.216-1.957c1.336-0.213,2.545,0.074,3.625,0.862C75.925,111.818,76.573,112.881,76.787,114.217z
				 M74.494,114.584c-0.127-0.797-0.482-1.435-1.067-1.915c-0.584-0.479-1.217-0.665-1.897-0.555
				c-0.694,0.109-1.24,0.483-1.639,1.121s-0.535,1.354-0.408,2.149c0.125,0.783,0.479,1.419,1.057,1.906
				c0.579,0.487,1.215,0.676,1.909,0.564c0.681-0.109,1.224-0.485,1.628-1.132C74.479,116.082,74.619,115.368,74.494,114.584z
				 M82.75,116.405c0.1,0.617-0.234,0.984-0.999,1.107c-0.765,0.122-1.196-0.125-1.294-0.741l-1.139-7.11
				c-0.098-0.616,0.234-0.986,1-1.108c0.764-0.122,1.195,0.125,1.293,0.741L82.75,116.405z"/>
			<path fill="#231F20" d="M94.35,109.822c0.916,1.649,1.321,3.284,1.217,4.904c-0.104,1.621-0.817,2.798-2.137,3.529
				c-1.308,0.728-2.683,0.716-4.125-0.031c-1.44-0.748-2.625-1.957-3.554-3.629c-0.928-1.673-1.329-3.317-1.2-4.938
				c0.129-1.618,0.848-2.791,2.155-3.519c1.331-0.737,2.708-0.725,4.129,0.041C92.257,106.949,93.43,108.162,94.35,109.822z
				 M92.354,110.931c-0.676-1.217-1.44-2.135-2.297-2.753c-0.857-0.619-1.656-0.723-2.395-0.312
				c-0.717,0.396-1.045,1.127-0.984,2.187c0.061,1.062,0.428,2.199,1.104,3.416c0.676,1.219,1.446,2.133,2.315,2.743
				c0.867,0.613,1.659,0.72,2.375,0.321c0.739-0.409,1.073-1.144,1.002-2.196C93.402,113.283,93.029,112.148,92.354,110.931z
				 M103.241,114.62c0.303,0.546,0.114,1.006-0.562,1.383c-0.678,0.375-1.168,0.29-1.47-0.257l-7.142-12.865
				c-0.303-0.546-0.115-1.007,0.562-1.382c0.677-0.376,1.167-0.291,1.47,0.255L103.241,114.62z M96.927,108.191
				c0.203,0.363,0.247,0.744,0.134,1.143c-0.115,0.398-0.354,0.699-0.718,0.9s-0.745,0.246-1.143,0.133
				c-0.398-0.114-0.698-0.354-0.9-0.718c-0.202-0.362-0.245-0.744-0.132-1.144c0.114-0.398,0.354-0.698,0.716-0.9
				c0.364-0.201,0.745-0.245,1.144-0.131C96.425,107.589,96.725,107.828,96.927,108.191z"/>
			<path fill="#231F20" d="M100.744,96.495c0.222-0.219,0.518-0.407,0.881-0.564c0.365-0.157,0.745-0.275,1.143-0.354l-0.015,0.014
				c0.415-0.062,0.826-0.014,1.233,0.143c0.408,0.154,0.796,0.42,1.16,0.789l0.656,0.669c0.848,0.862,1.119,1.975,0.813,3.333
				c-0.315,1.351-0.204,2.299,0.332,2.847l1.054,1.072c0.394,0.398,0.319,0.881-0.22,1.445c-0.538,0.529-1.012,0.585-1.422,0.167
				l-1.025-1.045c-0.521-0.527-0.854-1.085-1-1.671c-0.146-0.585-0.121-1.167,0.077-1.745c0.228-0.587,0.31-1.129,0.25-1.626
				c-0.06-0.498-0.263-0.923-0.61-1.274l-0.424-0.433c-0.229-0.23-0.509-0.375-0.844-0.429c-0.336-0.054-0.676,0.089-1.02,0.426
				l-0.904,0.889c-0.344,0.339-0.489,0.673-0.437,1.005c0.052,0.331,0.192,0.612,0.42,0.845l0.548,0.558
				c0.428,0.438,0.364,0.93-0.193,1.477c-0.537,0.527-1.021,0.573-1.449,0.138l-0.67-0.682c-0.738-0.752-1.04-1.551-0.903-2.396
				l-0.014,0.016c0.086-0.396,0.21-0.771,0.368-1.129c0.16-0.356,0.359-0.654,0.602-0.893L100.744,96.495z M110.521,106.395
				c0.318,0.325,0.478,0.703,0.474,1.137c-0.004,0.433-0.164,0.804-0.479,1.112c-0.314,0.312-0.689,0.465-1.123,0.459
				c-0.432-0.004-0.807-0.168-1.127-0.491c-0.31-0.315-0.459-0.688-0.451-1.115c0.008-0.428,0.17-0.797,0.485-1.106
				c0.315-0.311,0.687-0.466,1.115-0.467C109.843,105.922,110.212,106.079,110.521,106.395z"/>
		</g>
	</g>
	<circle fill="none" stroke="#231F20" stroke-miterlimit="10" cx="67.206" cy="67.822" r="65"/>
</g>
</svg>
