<?xml version="1.0" encoding="utf-8"?>
<!-- Generator: Adobe Illustrator 16.0.0, SVG Export Plug-In . SVG Version: 6.00 Build 0)  -->
<!DOCTYPE svg PUBLIC "-//W3C//DTD SVG 1.1//EN" "http://www.w3.org/Graphics/SVG/1.1/DTD/svg11.dtd">
<svg version="1.1" id="Layer_1" xmlns="http://www.w3.org/2000/svg" xmlns:xlink="http://www.w3.org/1999/xlink" x="0px" y="0px"
	 width="395px" height="85px" viewBox="0 0 395 85" enable-background="new 0 0 395 85" xml:space="preserve">
<g>
	<g>
		<path fill="#231F20" d="M123.092,69.597c0,2.38-1.456,3.57-4.365,3.57c-2.91,0-4.365-1.188-4.365-3.57V54.271
			c0-0.197-0.024-0.371-0.073-0.521c-0.05-0.147-0.246-0.224-0.587-0.224H89.27c-1.811,0-2.729-1.25-2.752-3.756
			c-0.025-2.504,0.893-3.757,2.752-3.757h29.2c1.761,0,2.972,0.459,3.632,1.378c0.66,0.916,0.99,1.945,0.99,3.086V69.597
			L123.092,69.597z M135.932,26.375c0,4.563-1.772,8.492-5.318,11.792c-3.547,3.299-7.862,4.946-12.949,4.946
			c-5.186,0-9.551-1.635-13.098-4.909c-3.547-3.273-5.318-7.216-5.318-11.828c0-4.613,1.771-8.556,5.318-11.828
			s7.912-4.91,13.098-4.91c5.087,0,9.402,1.649,12.948,4.947S135.932,21.813,135.932,26.375z M127.2,26.375
			c0-2.579-0.941-4.762-2.823-6.546c-1.884-1.785-4.121-2.679-6.713-2.679c-2.644,0-4.894,0.894-6.75,2.679
			c-1.86,1.786-2.789,3.968-2.789,6.546c0,2.579,0.929,4.762,2.789,6.547c1.856,1.786,4.106,2.678,6.75,2.678
			c2.592,0,4.829-0.892,6.713-2.678C126.258,31.136,127.2,28.954,127.2,26.375z"/>
		<path fill="#231F20" d="M184.355,43.857c0.782,2.281-0.195,3.894-2.935,4.834c-2.74,0.942-4.501,0.273-5.283-2.009l-9.465-29.087
			l-14.087,42.926c-0.782,2.28-2.543,2.95-5.282,2.008c-2.739-0.941-3.719-2.555-2.935-4.836l14.38-43.891
			c0.782-2.281,2.543-2.926,5.283-1.936c1.222,0.447,2.103,1.018,2.641,1.712c0.538-0.694,1.418-1.265,2.642-1.712
			c2.739-0.991,4.499-0.346,5.282,1.936L184.355,43.857z M173.863,74.878c-1.762,0-2.973-0.459-3.632-1.376
			c-0.661-0.918-0.99-1.947-0.99-3.087V52.783c0-2.381,1.454-3.57,4.364-3.57c2.909,0,4.365,1.189,4.365,3.57V66.62
			c0,0.198,0.024,0.372,0.073,0.521c0.049,0.149,0.245,0.225,0.587,0.225h33.016c1.81,0,2.728,1.252,2.751,3.757
			c0.024,2.503-0.893,3.756-2.751,3.756H173.863z M199.395,52.04c0,2.38-1.455,3.571-4.364,3.571c-2.91,0-4.365-1.191-4.365-3.571
			V13.505c0-2.381,1.455-3.571,4.365-3.571c2.909,0,4.364,1.189,4.364,3.571V52.04z M213.115,30.54c0,1.589-0.551,2.938-1.651,4.055
			s-2.434,1.675-3.999,1.675s-2.897-0.56-3.998-1.675c-1.101-1.114-1.649-2.466-1.649-4.055c0-1.586,0.55-2.938,1.649-4.054
			c1.101-1.116,2.433-1.674,3.998-1.674s2.898,0.558,3.999,1.674C212.565,27.602,213.115,28.954,213.115,30.54z"/>
		<path fill="#231F20" d="M256.622,29.053c0,5.109-1.785,9.498-5.355,13.167c-1.517,1.538-3.18,2.778-4.988,3.72
			c0.439,0.049,0.854,0.174,1.248,0.373c0.685,0.346,1.271,0.965,1.76,1.859l8.218,15.027l8.218-15.027
			c0.488-0.895,1.075-1.514,1.762-1.859c0.685-0.348,1.468-0.521,2.347-0.521c0.93,0,1.735,0.173,2.422,0.521
			c0.685,0.346,1.271,0.965,1.761,1.859l11.813,21.648c1.417,2.578,0.83,4.389-1.763,5.431s-4.4,0.644-5.43-1.19l-8.729-16.068
			l-8.806,16.068c-0.343,0.645-0.832,1.09-1.467,1.34c-0.636,0.248-1.296,0.346-1.979,0.297c-0.783,0.049-1.506-0.051-2.165-0.297
			c-0.66-0.25-1.188-0.695-1.577-1.34l-8.731-16.068l-8.805,16.068c-1.026,1.834-2.837,2.232-5.429,1.19
			c-2.595-1.042-3.182-2.853-1.762-5.431l11.813-21.648c0.146-0.248,0.294-0.496,0.44-0.744c-0.979,0.148-2.006,0.223-3.082,0.223
			c-5.186,0-9.55-1.81-13.096-5.43c-3.548-3.619-5.318-8.009-5.318-13.167c0-5.157,1.771-9.547,5.318-13.167
			c3.546-3.62,7.91-5.431,13.096-5.431c5.088,0,9.402,1.811,12.95,5.431C254.85,19.506,256.622,23.896,256.622,29.053z
			 M247.892,29.053c0-3.074-0.941-5.691-2.825-7.849c-1.883-2.157-4.12-3.235-6.713-3.235c-2.642,0-4.892,1.079-6.75,3.235
			c-1.858,2.157-2.787,4.774-2.787,7.849c0,3.025,0.929,5.629,2.787,7.811c1.858,2.185,4.108,3.274,6.75,3.274
			c2.593,0,4.83-1.09,6.713-3.274C246.949,34.683,247.892,32.078,247.892,29.053z M277.459,40.881c0,2.381-1.456,3.57-4.364,3.57
			c-2.911,0-4.366-1.189-4.366-3.57V13.43c0-2.38,1.455-3.57,4.366-3.57c2.908,0,4.364,1.189,4.364,3.57V40.881z"/>
		<path fill="#231F20" d="M326.689,37.162c0,7.191-1.65,13.391-4.951,18.598c-3.303,5.208-7.79,7.811-13.465,7.811
			c-5.624,0-10.125-2.578-13.5-7.736s-5.062-11.382-5.062-18.672c0-7.291,1.687-13.514,5.062-18.672
			c3.375-5.157,7.876-7.737,13.5-7.737c5.725,0,10.224,2.592,13.5,7.774S326.689,29.921,326.689,37.162z M318.105,37.162
			c0-5.307-0.844-9.783-2.53-13.428c-1.688-3.646-4.122-5.469-7.302-5.469c-3.081,0-5.49,1.822-7.227,5.469
			c-1.736,3.645-2.604,8.121-2.604,13.428c0,5.308,0.868,9.781,2.604,13.428c1.735,3.645,4.146,5.467,7.227,5.467
			c3.18,0,5.613-1.822,7.302-5.467C317.262,46.943,318.105,42.469,318.105,37.162z M338.136,36.492c0,1.588-0.552,2.938-1.65,4.054
			c-1.102,1.117-2.435,1.675-4,1.675s-2.897-0.558-3.997-1.675c-1.102-1.115-1.651-2.466-1.651-4.054s0.551-2.938,1.651-4.055
			c1.1-1.117,2.432-1.674,3.997-1.674s2.898,0.559,4,1.674C337.584,33.553,338.136,34.904,338.136,36.492z M347.159,69.597
			c0,2.38-1.456,3.57-4.365,3.57c-2.91,0-4.365-1.188-4.365-3.57V13.506c0-2.381,1.455-3.57,4.365-3.57
			c2.909,0,4.365,1.188,4.365,3.57V69.597z"/>
		<path fill="#231F20" d="M379.881,12.166c1.175,0,2.459,0.273,3.853,0.818c1.396,0.547,2.728,1.239,4,2.082h-0.073
			c1.271,0.942,2.249,2.17,2.935,3.683c0.685,1.514,1.027,3.262,1.027,5.245v3.57c0,4.612-2.202,8.357-6.604,11.233
			c-4.401,2.827-6.604,5.705-6.604,8.63v5.729c0,2.133-1.467,3.248-4.402,3.348c-2.838,0-4.255-1.116-4.255-3.348v-5.58
			c0-2.827,0.574-5.232,1.724-7.217c1.148-1.981,2.753-3.496,4.808-4.537c2.15-0.991,3.802-2.243,4.951-3.756
			c1.148-1.513,1.725-3.211,1.725-5.096v-2.306c0-1.239-0.38-2.382-1.137-3.423c-0.76-1.043-2.043-1.563-3.854-1.563h-4.77
			c-1.811,0-3.081,0.521-3.814,1.563c-0.732,1.041-1.101,2.184-1.101,3.423v2.975c0,2.332-1.468,3.497-4.402,3.497
			c-2.837,0-4.255-1.166-4.255-3.497v-3.645c0-4.017,1.296-6.993,3.889-8.927h-0.072c1.271-0.844,2.592-1.537,3.962-2.084
			c1.367-0.545,2.688-0.817,3.961-0.817L379.881,12.166L379.881,12.166z M380.028,65.208c0,1.737-0.575,3.187-1.725,4.353
			c-1.15,1.166-2.557,1.747-4.22,1.747c-1.662,0-3.069-0.581-4.219-1.747s-1.725-2.615-1.725-4.353c0-1.687,0.574-3.099,1.725-4.241
			c1.148-1.141,2.557-1.71,4.219-1.71c1.663,0,3.069,0.569,4.22,1.71C379.453,62.109,380.028,63.521,380.028,65.208z"/>
	</g>
	<g>
		<g>
			<path fill="#231F20" d="M38.028,26.867c15.851,0,28.891,8.808,30.479,24.666H72.2c-0.674-18.154-15.767-32.668-34.288-32.668
				c-18.524,0-33.616,14.514-34.29,32.668h3.927C9.138,35.674,22.177,26.867,38.028,26.867z"/>
			<path d="M54.274,71.803c-0.045,0.163-0.08,0.294-0.093,0.329c-0.128,0.37-0.272,0.737-0.448,1.09
				c-0.33,0.673-0.748,1.401-1.363,1.894c-0.877,0.699-2.065,0.879-3.188,0.938c-1.6,0.083-3.331,0.12-4.803-0.555
				c-0.376-0.176-0.731-0.403-1.045-0.665c-2.423-2.006-2.464-5.318-2.415-8.087c0.033-1.912-0.003-3.834-0.008-5.747
				c-0.004-2.571,0.005-5.142-0.006-7.71c-0.01-2.307,0.012-4.608-0.004-6.911c-0.006-1.12,0.056-2.255,0-3.373
				c0-0.004-0.006-0.062-0.007-0.062c-0.002,0-5.842,0-5.842,0v25.894c0,0.128,0.004,0.252,0.011,0.378h0.008
				c0.063,2.063,0.355,3.145,1.058,4.98c0.792,2.072,2.11,4.317,3.958,5.746c2.393,1.847,5.73,2.338,8.768,2.154
				c0.937-0.057,1.889-0.186,2.803-0.386c2.078-0.455,4.082-1.317,5.619-2.705c1.107-0.998,1.92-2.228,2.342-3.601
				c0.141-0.469,0.257-0.943,0.371-1.416c0.147-0.618,0.285-1.238,0.449-1.854c0.028-0.107,0.059-0.217,0.088-0.324L54.274,71.803z"
				/>
		</g>
		<g>
			<path fill="#231F20" d="M7.586,32.689c0,0.674-0.313,1.221-0.699,1.221c-0.385,0-0.697-0.547-0.697-1.221
				c0-0.677,0.697-4.828,0.697-4.828S7.586,32.013,7.586,32.689z"/>
			<path fill="#231F20" d="M14.89,25.775c0,0.674-0.312,1.224-0.698,1.224c-0.385,0-0.696-0.55-0.696-1.224
				c0-0.672,0.696-4.828,0.696-4.828S14.89,25.102,14.89,25.775z"/>
			<path fill="#231F20" d="M23.579,19.122c0,0.675-0.313,1.222-0.698,1.222s-0.697-0.547-0.697-1.222s0.697-4.828,0.697-4.828
				S23.579,18.447,23.579,19.122z"/>
			<path fill="#231F20" d="M68.915,32.343c0,0.674,0.312,1.222,0.697,1.222s0.698-0.548,0.698-1.222
				c0-0.676-0.698-4.827-0.698-4.827S68.915,31.668,68.915,32.343z"/>
			<path fill="#231F20" d="M61.495,25.775c0,0.674,0.311,1.224,0.697,1.224c0.385,0,0.699-0.55,0.699-1.224
				c0-0.672-0.699-4.828-0.699-4.828S61.495,25.102,61.495,25.775z"/>
			<path fill="#231F20" d="M52.807,19.122c0,0.675,0.313,1.222,0.698,1.222s0.698-0.547,0.698-1.222s-0.698-4.828-0.698-4.828
				S52.807,18.447,52.807,19.122z"/>
			<path fill="#231F20" d="M39.645,14.079c0,1.505-0.774,2.722-1.732,2.722s-1.735-1.217-1.735-2.722
				c0-1.502,1.735-10.757,1.735-10.757S39.645,12.576,39.645,14.079z"/>
		</g>
	</g>
</g>
</svg>
