<?xml version="1.0" encoding="utf-8"?>
<!-- Generator: Adobe Illustrator 16.0.0, SVG Export Plug-In . SVG Version: 6.00 Build 0)  -->
<!DOCTYPE svg PUBLIC "-//W3C//DTD SVG 1.1//EN" "http://www.w3.org/Graphics/SVG/1.1/DTD/svg11.dtd">
<svg version="1.1" id="Layer_1" xmlns="http://www.w3.org/2000/svg" xmlns:xlink="http://www.w3.org/1999/xlink" x="0px" y="0px"
	 width="430px" height="120px" viewBox="0 0 430 120" enable-background="new 0 0 430 120" xml:space="preserve">
<g>
	<g>
		<path fill="#231F20" d="M155.865,94.785c0,2.383-1.457,3.572-4.37,3.572c-2.915,0-4.372-1.189-4.372-3.572V79.441
			c0-0.197-0.025-0.371-0.072-0.521c-0.051-0.148-0.246-0.223-0.588-0.223H122c-1.813,0-2.73-1.254-2.754-3.762
			c-0.025-2.508,0.893-3.764,2.754-3.764h29.237c1.764,0,2.976,0.461,3.636,1.379c0.662,0.92,0.992,1.949,0.992,3.092V94.785
			L155.865,94.785z M168.722,51.509c0,4.569-1.777,8.505-5.327,11.805c-3.553,3.305-7.873,4.953-12.967,4.953
			c-5.189,0-9.562-1.639-13.111-4.916c-3.553-3.275-5.324-7.224-5.324-11.842c0-4.618,1.771-8.565,5.324-11.842
			c3.55-3.277,7.922-4.916,13.111-4.916c5.094,0,9.414,1.65,12.967,4.953C166.944,43.007,168.722,46.942,168.722,51.509z
			 M159.979,51.509c0-2.581-0.943-4.767-2.829-6.554c-1.886-1.788-4.126-2.682-6.723-2.682c-2.644,0-4.896,0.894-6.758,2.682
			c-1.862,1.787-2.791,3.973-2.791,6.554c0,2.582,0.93,4.769,2.791,6.556c1.86,1.787,4.114,2.681,6.758,2.681
			c2.597,0,4.837-0.894,6.723-2.681S159.979,54.091,159.979,51.509z"/>
		<path fill="#231F20" d="M217.202,69.014c0.783,2.283-0.193,3.896-2.938,4.842c-2.743,0.943-4.505,0.271-5.288-2.012L199.5,42.721
			l-14.104,42.979c-0.785,2.283-2.548,2.953-5.29,2.01c-2.743-0.941-3.723-2.557-2.938-4.842l14.399-43.944
			c0.782-2.283,2.546-2.931,5.287-1.938c1.225,0.447,2.106,1.019,2.646,1.713c0.537-0.695,1.419-1.266,2.645-1.713
			c2.741-0.993,4.505-0.347,5.29,1.938L217.202,69.014z M206.699,100.072c-1.764,0-2.976-0.459-3.638-1.377
			c-0.66-0.92-0.992-1.949-0.992-3.092v-17.65c0-2.387,1.457-3.576,4.372-3.576c2.913,0,4.37,1.189,4.37,3.576v13.852
			c0,0.199,0.025,0.373,0.074,0.521s0.244,0.223,0.588,0.223h33.055c1.813,0,2.73,1.256,2.754,3.764
			c0.025,2.506-0.893,3.76-2.754,3.76H206.699z M232.261,77.207c0,2.383-1.457,3.574-4.369,3.574c-2.914,0-4.371-1.191-4.371-3.574
			V38.625c0-2.385,1.457-3.575,4.371-3.575c2.912,0,4.369,1.19,4.369,3.575V77.207z M245.999,55.68c0,1.592-0.553,2.943-1.652,4.061
			c-1.105,1.117-2.438,1.677-4.006,1.677s-2.9-0.561-4.002-1.677c-1.104-1.117-1.652-2.469-1.652-4.061
			c0-1.589,0.551-2.941,1.652-4.059s2.434-1.677,4.002-1.677s2.9,0.559,4.006,1.677C245.448,52.739,245.999,54.091,245.999,55.68z"
			/>
		<path fill="#231F20" d="M289.56,54.191c0,5.116-1.787,9.51-5.361,13.184c-1.52,1.541-3.184,2.783-4.996,3.725
			c0.441,0.049,0.857,0.174,1.25,0.373c0.686,0.348,1.27,0.967,1.762,1.861l8.229,15.045l8.227-15.045
			c0.49-0.895,1.078-1.516,1.764-1.861c0.686-0.348,1.471-0.52,2.352-0.52c0.93,0,1.738,0.172,2.424,0.52
			c0.686,0.346,1.273,0.967,1.764,1.861l11.826,21.676c1.42,2.58,0.832,4.395-1.764,5.436c-2.594,1.043-4.406,0.645-5.438-1.191
			l-8.738-16.088l-8.816,16.088c-0.344,0.645-0.834,1.092-1.469,1.342c-0.637,0.248-1.299,0.346-1.984,0.297
			c-0.781,0.049-1.504-0.049-2.166-0.297c-0.66-0.25-1.188-0.697-1.578-1.342l-8.742-16.088l-8.816,16.088
			c-1.025,1.836-2.84,2.234-5.434,1.191c-2.598-1.043-3.186-2.855-1.764-5.436l11.824-21.676c0.148-0.248,0.295-0.496,0.441-0.744
			c-0.98,0.146-2.008,0.223-3.086,0.223c-5.191,0-9.561-1.811-13.111-5.436c-3.553-3.625-5.324-8.019-5.324-13.185
			c0-5.164,1.771-9.559,5.324-13.184c3.551-3.624,7.92-5.437,13.111-5.437c5.094,0,9.414,1.813,12.967,5.437
			C287.784,44.633,289.56,49.028,289.56,54.191z M280.819,54.191c0-3.078-0.943-5.697-2.83-7.857c-1.885-2.16-4.127-3.24-6.721-3.24
			c-2.645,0-4.896,1.08-6.76,3.24c-1.859,2.161-2.789,4.779-2.789,7.857c0,3.03,0.93,5.637,2.789,7.82
			c1.861,2.186,4.115,3.277,6.76,3.277c2.594,0,4.836-1.092,6.721-3.277C279.876,59.829,280.819,57.221,280.819,54.191z
			 M310.421,66.033c0,2.385-1.457,3.576-4.369,3.576c-2.914,0-4.371-1.191-4.371-3.576V38.549c0-2.383,1.457-3.575,4.371-3.575
			c2.912,0,4.369,1.191,4.369,3.575V66.033z"/>
		<path fill="#231F20" d="M359.712,62.311c0,7.199-1.652,13.406-4.957,18.619c-3.307,5.215-7.801,7.82-13.48,7.82
			c-5.631,0-10.137-2.58-13.518-7.746c-3.379-5.164-5.066-11.395-5.066-18.693c0-7.3,1.688-13.531,5.066-18.695
			c3.381-5.164,7.887-7.747,13.518-7.747c5.73,0,10.234,2.596,13.516,7.784C358.071,48.841,359.712,55.061,359.712,62.311z
			 M351.116,62.311c0-5.312-0.844-9.795-2.531-13.445c-1.691-3.649-4.129-5.474-7.311-5.474c-3.086,0-5.498,1.824-7.236,5.474
			s-2.607,8.133-2.607,13.445c0,5.313,0.869,9.793,2.607,13.443s4.15,5.475,7.236,5.475c3.182,0,5.619-1.824,7.311-5.475
			C350.272,72.104,351.116,67.623,351.116,62.311z M371.173,61.641c0,1.588-0.553,2.939-1.652,4.059
			c-1.104,1.117-2.439,1.676-4.004,1.676c-1.568,0-2.9-0.559-4.004-1.676s-1.652-2.471-1.652-4.059c0-1.589,0.551-2.943,1.652-4.06
			c1.104-1.119,2.436-1.678,4.004-1.678c1.564,0,2.9,0.559,4.004,1.678C370.62,58.698,371.173,60.051,371.173,61.641z
			 M380.208,94.785c0,2.383-1.459,3.572-4.373,3.572c-2.912,0-4.369-1.189-4.369-3.572v-56.16c0-2.385,1.457-3.575,4.369-3.575
			c2.914,0,4.373,1.19,4.373,3.575V94.785z"/>
		<path fill="#231F20" d="M412.97,37.284c1.176,0,2.461,0.273,3.855,0.819c1.396,0.548,2.73,1.242,4.004,2.086h-0.072
			c1.271,0.943,2.252,2.172,2.938,3.688c0.686,1.516,1.029,3.266,1.029,5.25v3.576c0,4.618-2.205,8.365-6.611,11.244
			c-4.408,2.832-6.613,5.713-6.613,8.643v5.734c0,2.135-1.469,3.252-4.406,3.352c-2.842,0-4.262-1.117-4.262-3.352v-5.588
			c0-2.828,0.576-5.236,1.729-7.225c1.148-1.984,2.754-3.5,4.813-4.543c2.152-0.992,3.807-2.246,4.957-3.761
			c1.15-1.514,1.727-3.214,1.727-5.102v-2.309c0-1.24-0.381-2.384-1.139-3.427c-0.76-1.043-2.047-1.564-3.855-1.564h-4.777
			c-1.811,0-3.084,0.521-3.818,1.564c-0.734,1.042-1.102,2.187-1.102,3.427v2.979c0,2.334-1.469,3.5-4.406,3.5
			c-2.842,0-4.262-1.166-4.262-3.5v-3.649c0-4.021,1.297-7.001,3.895-8.937h-0.074c1.273-0.845,2.596-1.539,3.969-2.086
			c1.367-0.545,2.691-0.819,3.965-0.819H412.97L412.97,37.284z M413.116,90.391c0,1.738-0.576,3.189-1.727,4.357
			c-1.152,1.166-2.559,1.75-4.223,1.75c-1.666,0-3.074-0.584-4.225-1.75c-1.152-1.168-1.727-2.619-1.727-4.357
			c0-1.689,0.572-3.104,1.727-4.246c1.15-1.143,2.559-1.713,4.225-1.713c1.664,0,3.07,0.57,4.223,1.713
			C412.54,87.287,413.116,88.701,413.116,90.391z"/>
	</g>
	<g>
		<g>
			<path fill="#231F20" d="M55.485,37.45c22.928,0,41.784,12.737,44.082,35.675h5.346c-0.976-26.258-22.807-47.25-49.597-47.25
				c-26.789,0-48.619,20.992-49.593,47.25h5.681C13.7,50.187,32.56,37.45,55.485,37.45z"/>
			<path d="M78.98,102.443c-0.063,0.234-0.115,0.426-0.133,0.477c-0.184,0.535-0.395,1.064-0.646,1.576
				c-0.48,0.971-1.087,2.025-1.976,2.734c-1.267,1.012-2.987,1.275-4.609,1.359c-2.313,0.119-4.818,0.172-6.945-0.807
				c-0.547-0.252-1.059-0.582-1.512-0.959c-3.504-2.902-3.565-7.691-3.493-11.697c0.049-2.766-0.005-5.547-0.011-8.313
				c-0.006-3.717,0.006-7.436-0.01-11.152c-0.012-3.332,0.016-6.662-0.004-9.994c-0.01-1.619,0.08-3.262-0.002-4.877
				c0-0.008-0.006-0.088-0.008-0.088s-8.449,0-8.449,0v37.449c0,0.184,0.006,0.365,0.012,0.547h0.017
				c0.092,2.984,0.514,4.549,1.526,7.205c1.146,2.996,3.052,6.244,5.727,8.307c3.462,2.674,8.289,3.385,12.681,3.119
				c1.354-0.082,2.731-0.27,4.054-0.559c3.006-0.658,5.904-1.908,8.13-3.912c1.603-1.443,2.775-3.223,3.382-5.209
				c0.207-0.678,0.375-1.363,0.539-2.049c0.215-0.895,0.412-1.791,0.651-2.68c0.041-0.156,0.084-0.313,0.125-0.471L78.98,102.443z"
				/>
		</g>
		<g>
			<path fill="#231F20" d="M11.455,45.869c0,0.976-0.451,1.766-1.01,1.766c-0.557,0-1.01-0.791-1.01-1.766
				c0-0.977,1.01-6.982,1.01-6.982S11.455,44.892,11.455,45.869z"/>
			<path fill="#231F20" d="M22.021,35.871c0,0.976-0.451,1.767-1.01,1.767c-0.557,0-1.01-0.791-1.01-1.767
				c0-0.977,1.01-6.981,1.01-6.981S22.021,34.895,22.021,35.871z"/>
			<path fill="#231F20" d="M34.586,26.249c0,0.976-0.453,1.766-1.01,1.766c-0.559,0-1.01-0.79-1.01-1.766
				c0-0.977,1.01-6.982,1.01-6.982S34.586,25.271,34.586,26.249z"/>
			<path fill="#231F20" d="M100.159,45.369c0,0.976,0.45,1.766,1.01,1.766c0.557,0,1.009-0.79,1.009-1.766
				c0-0.977-1.009-6.982-1.009-6.982S100.159,44.392,100.159,45.369z"/>
			<path fill="#231F20" d="M89.425,35.871c0,0.976,0.453,1.767,1.01,1.767c0.56,0,1.01-0.791,1.01-1.767
				c0-0.977-1.01-6.981-1.01-6.981S89.425,34.895,89.425,35.871z"/>
			<path fill="#231F20" d="M76.859,26.249c0,0.976,0.453,1.766,1.011,1.766c0.559,0,1.01-0.79,1.01-1.766
				c0-0.977-1.01-6.982-1.01-6.982S76.859,25.271,76.859,26.249z"/>
			<path fill="#231F20" d="M57.825,18.954c0,2.175-1.123,3.938-2.51,3.938c-1.384,0-2.509-1.763-2.509-3.938
				c0-2.175,2.509-15.559,2.509-15.559S57.825,16.778,57.825,18.954z"/>
		</g>
	</g>
</g>
</svg>
