<?xml version="1.0" encoding="utf-8"?>
<!-- Generator: Adobe Illustrator 16.0.0, SVG Export Plug-In . SVG Version: 6.00 Build 0)  -->
<!DOCTYPE svg PUBLIC "-//W3C//DTD SVG 1.1//EN" "http://www.w3.org/Graphics/SVG/1.1/DTD/svg11.dtd">
<svg version="1.1" id="Layer_1" xmlns="http://www.w3.org/2000/svg" xmlns:xlink="http://www.w3.org/1999/xlink" x="0px" y="0px"
	 width="130px" height="130px" viewBox="0 0 130 130" enable-background="new 0 0 130 130" xml:space="preserve">
<g>
	<g>
		<g>
			<path fill="#231F20" d="M33.187,117.964c-0.319,0.558-0.824,0.64-1.517,0.245c-0.69-0.396-0.877-0.872-0.56-1.43l2.05-3.592
				c0.027-0.046,0.045-0.09,0.053-0.131c0.009-0.042-0.027-0.086-0.109-0.133L27.3,109.61c-0.431-0.244-0.48-0.662-0.15-1.254
				c0.329-0.59,0.714-0.759,1.156-0.507l6.937,3.961c0.418,0.238,0.646,0.512,0.679,0.814c0.036,0.305-0.024,0.592-0.177,0.858
				L33.187,117.964z M42.018,109.578c-0.609,1.068-1.559,1.75-2.841,2.042c-1.284,0.292-2.529,0.092-3.738-0.599
				c-1.231-0.702-2.05-1.68-2.454-2.927c-0.404-1.249-0.298-2.412,0.319-3.493c0.616-1.081,1.563-1.764,2.846-2.05
				c1.28-0.285,2.536-0.077,3.769,0.626c1.207,0.69,2.013,1.662,2.414,2.916C42.732,107.349,42.627,108.51,42.018,109.578z
				 M39.944,108.395c0.345-0.604,0.412-1.242,0.204-1.917c-0.208-0.674-0.621-1.187-1.236-1.538
				c-0.627-0.357-1.28-0.453-1.963-0.288c-0.68,0.166-1.191,0.552-1.535,1.156c-0.348,0.604-0.418,1.24-0.215,1.912
				c0.202,0.67,0.617,1.186,1.244,1.542c0.616,0.353,1.268,0.446,1.953,0.283C39.082,109.383,39.6,108.999,39.944,108.395z"/>
			<path fill="#231F20" d="M52.879,117.332c0.092,0.646-0.254,1.021-1.037,1.126c-0.784,0.105-1.223-0.163-1.315-0.809l-1.036-8.198
				l-6.002,10.628c-0.326,0.563-0.835,0.647-1.521,0.255c-0.688-0.394-0.865-0.871-0.538-1.435l6.132-10.868
				c0.327-0.563,0.833-0.643,1.518-0.235c0.306,0.183,0.513,0.38,0.621,0.592c0.18-0.156,0.446-0.261,0.797-0.313
				c0.787-0.12,1.228,0.144,1.318,0.789L52.879,117.332z M48.459,124.996c-0.474-0.092-0.774-0.277-0.903-0.556
				c-0.131-0.276-0.166-0.566-0.106-0.868l0.911-4.669c0.123-0.631,0.575-0.869,1.356-0.717c0.779,0.151,1.109,0.543,0.986,1.175
				l-0.716,3.663c-0.011,0.054-0.013,0.101-0.007,0.143c0.005,0.042,0.055,0.072,0.146,0.09l8.863,1.73
				c0.486,0.096,0.668,0.476,0.545,1.139c-0.123,0.665-0.435,0.949-0.933,0.851L48.459,124.996z M56.496,120.287
				c-0.125,0.63-0.576,0.869-1.356,0.717c-0.782-0.152-1.111-0.544-0.988-1.175l1.993-10.203c0.122-0.631,0.575-0.87,1.355-0.717
				c0.781,0.15,1.11,0.544,0.987,1.174L56.496,120.287z M61.289,115.313c-0.082,0.422-0.299,0.75-0.652,0.987
				c-0.354,0.238-0.739,0.315-1.159,0.234c-0.421-0.083-0.75-0.302-0.987-0.654c-0.238-0.353-0.314-0.739-0.232-1.159
				c0.082-0.421,0.299-0.75,0.652-0.987c0.354-0.236,0.738-0.315,1.16-0.232c0.42,0.082,0.749,0.3,0.985,0.652
				C61.293,114.507,61.373,114.894,61.289,115.313z"/>
			<path fill="#231F20" d="M72.394,113.245c0.217,1.361-0.079,2.606-0.887,3.739c-0.343,0.476-0.74,0.877-1.188,1.206
				c0.12-0.006,0.238,0.011,0.354,0.046c0.199,0.063,0.386,0.201,0.556,0.419l2.86,3.646l1.578-4.356
				c0.095-0.26,0.227-0.45,0.396-0.571c0.169-0.123,0.374-0.202,0.611-0.24c0.251-0.04,0.477-0.028,0.676,0.033
				c0.2,0.063,0.385,0.203,0.556,0.419l4.113,5.257c0.493,0.626,0.412,1.135-0.243,1.523c-0.656,0.39-1.162,0.36-1.52-0.082
				l-3.043-3.904l-1.691,4.661c-0.064,0.188-0.179,0.327-0.34,0.421c-0.162,0.093-0.336,0.147-0.521,0.164
				c-0.211,0.048-0.408,0.053-0.599,0.016c-0.188-0.039-0.351-0.135-0.481-0.289l-3.045-3.902l-1.692,4.661
				c-0.199,0.532-0.671,0.718-1.415,0.552c-0.745-0.165-0.981-0.622-0.708-1.371l2.268-6.276c0.029-0.072,0.06-0.146,0.089-0.218
				c-0.259,0.082-0.533,0.146-0.822,0.192c-1.402,0.224-2.658-0.069-3.771-0.881c-1.112-0.813-1.778-1.904-1.999-3.278
				c-0.22-1.374,0.072-2.619,0.876-3.737c0.804-1.116,1.905-1.789,3.308-2.013c1.373-0.22,2.615,0.076,3.729,0.887
				C71.507,110.778,72.174,111.871,72.394,113.245z M70.035,113.622c-0.131-0.819-0.498-1.476-1.098-1.969
				c-0.602-0.493-1.253-0.686-1.952-0.571c-0.714,0.113-1.274,0.499-1.686,1.153c-0.41,0.654-0.55,1.393-0.418,2.212
				c0.129,0.806,0.489,1.459,1.086,1.96c0.595,0.501,1.249,0.694,1.962,0.58c0.701-0.111,1.259-0.499,1.674-1.162
				C70.02,115.163,70.164,114.429,70.035,113.622z M78.526,115.495c0.101,0.635-0.241,1.014-1.026,1.141
				c-0.787,0.125-1.23-0.129-1.332-0.763l-1.17-7.313c-0.102-0.635,0.239-1.015,1.026-1.14c0.786-0.126,1.229,0.128,1.332,0.762
				L78.526,115.495z"/>
			<path fill="#231F20" d="M90.457,108.725c0.939,1.697,1.357,3.378,1.25,5.046c-0.107,1.667-0.842,2.876-2.196,3.631
				c-1.347,0.745-2.761,0.734-4.243-0.032c-1.482-0.771-2.701-2.015-3.655-3.733c-0.954-1.72-1.366-3.412-1.233-5.077
				c0.132-1.664,0.871-2.87,2.216-3.616c1.368-0.761,2.784-0.746,4.247,0.042C88.304,105.771,89.509,107.018,90.457,108.725z
				 M88.403,109.864c-0.694-1.251-1.481-2.195-2.362-2.831c-0.881-0.637-1.703-0.743-2.463-0.32
				c-0.737,0.408-1.074,1.159-1.013,2.249c0.062,1.091,0.44,2.262,1.136,3.514c0.694,1.252,1.487,2.192,2.381,2.821
				c0.893,0.63,1.707,0.74,2.444,0.33c0.761-0.421,1.104-1.175,1.03-2.259S89.099,111.117,88.403,109.864z M99.601,113.659
				c0.313,0.562,0.118,1.035-0.578,1.422s-1.199,0.299-1.511-0.264l-7.346-13.231c-0.312-0.562-0.119-1.035,0.576-1.422
				c0.696-0.386,1.2-0.299,1.514,0.263L99.601,113.659z M93.107,107.048c0.207,0.375,0.252,0.768,0.135,1.175
				c-0.115,0.41-0.361,0.72-0.736,0.927c-0.374,0.209-0.766,0.254-1.176,0.137c-0.408-0.117-0.718-0.362-0.926-0.737
				c-0.207-0.374-0.253-0.766-0.136-1.176c0.117-0.409,0.363-0.718,0.737-0.926s0.767-0.253,1.175-0.137
				C92.591,106.428,92.899,106.674,93.107,107.048z"/>
			<path fill="#231F20" d="M97.033,95.019c0.229-0.225,0.53-0.419,0.905-0.581c0.375-0.161,0.768-0.283,1.174-0.364l-0.015,0.014
				c0.427-0.063,0.85-0.014,1.27,0.146c0.419,0.158,0.817,0.431,1.191,0.813l0.676,0.688c0.872,0.888,1.15,2.03,0.835,3.429
				c-0.325,1.389-0.21,2.362,0.343,2.927l1.083,1.104c0.403,0.41,0.328,0.905-0.227,1.487c-0.554,0.544-1.041,0.603-1.463,0.171
				l-1.055-1.073c-0.535-0.544-0.877-1.116-1.028-1.72c-0.15-0.602-0.124-1.199,0.079-1.794c0.232-0.604,0.318-1.162,0.257-1.673
				c-0.063-0.512-0.271-0.949-0.627-1.312l-0.437-0.444c-0.233-0.238-0.522-0.385-0.868-0.439c-0.346-0.057-0.694,0.091-1.048,0.438
				l-0.931,0.914c-0.354,0.348-0.504,0.691-0.449,1.032s0.197,0.631,0.432,0.869l0.563,0.572c0.441,0.449,0.376,0.955-0.198,1.519
				c-0.554,0.544-1.05,0.591-1.49,0.142l-0.688-0.701c-0.76-0.772-1.069-1.594-0.93-2.464l-0.015,0.016
				c0.088-0.405,0.217-0.793,0.379-1.16c0.164-0.368,0.371-0.674,0.619-0.918L97.033,95.019z M107.088,105.199
				c0.327,0.335,0.49,0.724,0.486,1.169c-0.004,0.443-0.169,0.826-0.493,1.145c-0.323,0.319-0.709,0.479-1.153,0.474
				s-0.83-0.173-1.159-0.508c-0.318-0.323-0.474-0.706-0.465-1.146c0.009-0.44,0.176-0.819,0.5-1.139
				c0.324-0.32,0.707-0.479,1.146-0.479C106.391,104.714,106.77,104.875,107.088,105.199z"/>
		</g>
		<g>
			<g>
				<path fill="#231F20" d="M62.677,29.983c18.474,0,33.671,10.265,35.521,28.747h4.307c-0.785-21.158-18.376-38.074-39.966-38.074
					c-21.588,0-39.179,16.916-39.965,38.074h4.577C29.004,40.248,44.203,29.983,62.677,29.983z"/>
				<path d="M81.609,82.358c-0.051,0.188-0.094,0.342-0.105,0.384c-0.149,0.431-0.319,0.855-0.521,1.27
					c-0.388,0.783-0.875,1.633-1.59,2.204c-1.021,0.815-2.409,1.027-3.717,1.096c-1.864,0.097-3.883,0.14-5.598-0.648
					c-0.438-0.202-0.854-0.469-1.218-0.771c-2.823-2.341-2.872-6.199-2.815-9.428c0.041-2.229-0.002-4.469-0.006-6.698
					c-0.006-2.996,0.004-5.991-0.008-8.985c-0.012-2.687,0.012-5.37-0.005-8.056c-0.008-1.304,0.064-2.629-0.003-3.931
					c0-0.006-0.004-0.07-0.006-0.07s-6.809,0-6.809,0v30.178c0,0.148,0.006,0.295,0.011,0.44h0.012
					c0.074,2.405,0.414,3.665,1.231,5.807c0.923,2.414,2.459,5.03,4.613,6.693c2.789,2.153,6.681,2.729,10.217,2.513
					c1.093-0.064,2.201-0.217,3.268-0.448c2.423-0.529,4.759-1.538,6.552-3.153c1.29-1.163,2.236-2.595,2.726-4.197
					c0.166-0.545,0.302-1.098,0.435-1.649c0.173-0.722,0.332-1.443,0.524-2.16c0.033-0.124,0.066-0.252,0.103-0.378L81.609,82.358z"
					/>
			</g>
			<g>
				<path fill="#231F20" d="M27.196,36.769c0,0.785-0.364,1.424-0.813,1.424c-0.45,0-0.813-0.639-0.813-1.424
					c0-0.787,0.813-5.627,0.813-5.627S27.196,35.981,27.196,36.769z"/>
				<path fill="#231F20" d="M35.709,28.711c0,0.786-0.363,1.425-0.813,1.425s-0.813-0.639-0.813-1.425
					c0-0.785,0.813-5.625,0.813-5.625S35.709,27.926,35.709,28.711z"/>
				<path fill="#231F20" d="M45.834,20.957c0,0.786-0.362,1.423-0.813,1.423c-0.446,0-0.813-0.637-0.813-1.423
					c0-0.787,0.813-5.626,0.813-5.626S45.834,20.17,45.834,20.957z"/>
				<path fill="#231F20" d="M98.675,36.365c0,0.786,0.363,1.423,0.813,1.423s0.813-0.637,0.813-1.423
					c0-0.787-0.813-5.626-0.813-5.626S98.675,35.578,98.675,36.365z"/>
				<path fill="#231F20" d="M90.026,28.711c0,0.786,0.364,1.425,0.813,1.425s0.813-0.639,0.813-1.425
					c0-0.785-0.813-5.625-0.813-5.625S90.026,27.926,90.026,28.711z"/>
				<path fill="#231F20" d="M79.901,20.957c0,0.786,0.363,1.423,0.813,1.423c0.447,0,0.813-0.637,0.813-1.423
					c0-0.787-0.813-5.626-0.813-5.626S79.901,20.17,79.901,20.957z"/>
				<path fill="#231F20" d="M64.563,15.08c0,1.751-0.906,3.171-2.021,3.171c-1.116,0-2.021-1.42-2.021-3.171
					c0-1.753,2.021-12.538,2.021-12.538S64.563,13.327,64.563,15.08z"/>
			</g>
		</g>
	</g>
	<g>
		<g>
			<path fill="#231F20" d="M62.677,29.983c18.474,0,33.671,10.265,35.521,28.747h4.307c-0.785-21.158-18.376-38.074-39.966-38.074
				c-21.588,0-39.179,16.916-39.965,38.074h4.577C29.004,40.248,44.203,29.983,62.677,29.983z"/>
			<path d="M81.609,82.358c-0.051,0.188-0.094,0.342-0.105,0.384c-0.149,0.431-0.319,0.855-0.521,1.27
				c-0.388,0.783-0.875,1.633-1.59,2.204c-1.021,0.815-2.409,1.027-3.717,1.096c-1.864,0.097-3.883,0.14-5.598-0.648
				c-0.438-0.202-0.854-0.469-1.218-0.771c-2.823-2.341-2.872-6.199-2.815-9.428c0.041-2.229-0.002-4.469-0.006-6.698
				c-0.006-2.996,0.004-5.991-0.008-8.985c-0.012-2.687,0.012-5.37-0.005-8.056c-0.008-1.304,0.064-2.629-0.003-3.931
				c0-0.006-0.004-0.07-0.006-0.07s-6.809,0-6.809,0v30.178c0,0.148,0.006,0.295,0.011,0.44h0.012
				c0.074,2.405,0.414,3.665,1.231,5.807c0.923,2.414,2.459,5.03,4.613,6.693c2.789,2.153,6.681,2.729,10.217,2.513
				c1.093-0.064,2.201-0.217,3.268-0.448c2.423-0.529,4.759-1.538,6.552-3.153c1.29-1.163,2.236-2.595,2.726-4.197
				c0.166-0.545,0.302-1.098,0.435-1.649c0.173-0.722,0.332-1.443,0.524-2.16c0.033-0.124,0.066-0.252,0.103-0.378L81.609,82.358z"
				/>
		</g>
		<g>
			<path fill="#231F20" d="M27.196,36.769c0,0.785-0.364,1.424-0.813,1.424c-0.45,0-0.813-0.639-0.813-1.424
				c0-0.787,0.813-5.627,0.813-5.627S27.196,35.981,27.196,36.769z"/>
			<path fill="#231F20" d="M35.709,28.711c0,0.786-0.363,1.425-0.813,1.425s-0.813-0.639-0.813-1.425
				c0-0.785,0.813-5.625,0.813-5.625S35.709,27.926,35.709,28.711z"/>
			<path fill="#231F20" d="M45.834,20.957c0,0.786-0.362,1.423-0.813,1.423c-0.446,0-0.813-0.637-0.813-1.423
				c0-0.787,0.813-5.626,0.813-5.626S45.834,20.17,45.834,20.957z"/>
			<path fill="#231F20" d="M98.675,36.365c0,0.786,0.363,1.423,0.813,1.423s0.813-0.637,0.813-1.423
				c0-0.787-0.813-5.626-0.813-5.626S98.675,35.578,98.675,36.365z"/>
			<path fill="#231F20" d="M90.026,28.711c0,0.786,0.364,1.425,0.813,1.425s0.813-0.639,0.813-1.425
				c0-0.785-0.813-5.625-0.813-5.625S90.026,27.926,90.026,28.711z"/>
			<path fill="#231F20" d="M79.901,20.957c0,0.786,0.363,1.423,0.813,1.423c0.447,0,0.813-0.637,0.813-1.423
				c0-0.787-0.813-5.626-0.813-5.626S79.901,20.17,79.901,20.957z"/>
			<path fill="#231F20" d="M64.563,15.08c0,1.751-0.906,3.171-2.021,3.171c-1.116,0-2.021-1.42-2.021-3.171
				c0-1.753,2.021-12.538,2.021-12.538S64.563,13.327,64.563,15.08z"/>
		</g>
	</g>
</g>
</svg>
