<?xml version="1.0" encoding="utf-8"?>
<!-- Generator: Adobe Illustrator 16.0.0, SVG Export Plug-In . SVG Version: 6.00 Build 0)  -->
<!DOCTYPE svg PUBLIC "-//W3C//DTD SVG 1.1//EN" "http://www.w3.org/Graphics/SVG/1.1/DTD/svg11.dtd">
<svg version="1.1" id="Layer_1" xmlns="http://www.w3.org/2000/svg" xmlns:xlink="http://www.w3.org/1999/xlink" x="0px" y="0px"
	 width="430px" height="105px" viewBox="0 0 430 105" enable-background="new 0 0 430 105" xml:space="preserve">
<g>
	<path fill="#FFFFFF" d="M55.54,18.43c22.927,0,41.784,12.737,44.083,35.675h5.343c-0.974-26.257-22.805-47.25-49.595-47.25
		c-26.791,0-48.62,20.992-49.594,47.25h5.681C13.754,31.167,32.614,18.43,55.54,18.43z"/>
	<path fill="#FFFFFF" d="M79.034,83.424c-0.063,0.234-0.115,0.426-0.133,0.477c-0.184,0.535-0.395,1.063-0.646,1.574
		c-0.48,0.974-1.085,2.026-1.974,2.735c-1.269,1.013-2.988,1.274-4.611,1.358c-2.313,0.119-4.818,0.173-6.946-0.805
		c-0.545-0.252-1.058-0.582-1.511-0.959c-3.503-2.904-3.564-7.693-3.493-11.699c0.049-2.765-0.004-5.545-0.01-8.313
		c-0.006-3.718,0.006-7.436-0.009-11.15c-0.013-3.334,0.015-6.665-0.005-9.995c-0.01-1.619,0.08-3.263-0.002-4.878
		c0-0.007-0.006-0.088-0.008-0.088s-8.449,0-8.449,0v37.45c0,0.185,0.006,0.365,0.012,0.548h0.016
		c0.092,2.984,0.514,4.549,1.527,7.204c1.146,2.995,3.051,6.242,5.725,8.308c3.463,2.673,8.29,3.386,12.681,3.119
		c1.354-0.082,2.731-0.27,4.054-0.561c3.005-0.654,5.905-1.907,8.129-3.911c1.604-1.442,2.776-3.222,3.383-5.209
		c0.206-0.676,0.374-1.362,0.538-2.049c0.215-0.896,0.412-1.791,0.652-2.681c0.041-0.154,0.084-0.313,0.126-0.469L79.034,83.424z"/>
</g>
<g>
	<path fill="#FFFFFF" d="M155.924,79.759c0,2.384-1.458,3.573-4.371,3.573c-2.913,0-4.37-1.189-4.37-3.573V64.414
		c0-0.197-0.025-0.371-0.074-0.521c-0.049-0.147-0.246-0.224-0.588-0.224H122.06c-1.813,0-2.729-1.253-2.755-3.762
		c-0.024-2.507,0.895-3.763,2.755-3.763h29.237c1.762,0,2.975,0.461,3.637,1.379c0.66,0.92,0.991,1.949,0.991,3.092L155.924,79.759
		L155.924,79.759z M168.779,36.485c0,4.568-1.775,8.504-5.325,11.806c-3.551,3.303-7.872,4.953-12.965,4.953
		c-5.192,0-9.562-1.638-13.112-4.916c-3.552-3.277-5.327-7.226-5.327-11.843c0-4.618,1.774-8.565,5.327-11.843
		c3.55-3.276,7.92-4.915,13.112-4.915c5.093,0,9.414,1.651,12.965,4.952C167.004,27.982,168.779,31.917,168.779,36.485z
		 M160.037,36.485c0-2.582-0.942-4.767-2.827-6.555c-1.887-1.788-4.126-2.682-6.722-2.682c-2.646,0-4.897,0.894-6.759,2.682
		c-1.861,1.788-2.792,3.973-2.792,6.555s0.931,4.767,2.792,6.555s4.112,2.682,6.759,2.682c2.596,0,4.835-0.894,6.722-2.682
		C159.094,41.251,160.037,39.067,160.037,36.485z"/>
	<path fill="#FFFFFF" d="M217.26,53.988c0.783,2.283-0.195,3.897-2.938,4.842c-2.744,0.943-4.506,0.271-5.289-2.012l-9.476-29.124
		l-14.104,42.977c-0.784,2.282-2.548,2.954-5.29,2.01c-2.743-0.94-3.722-2.557-2.938-4.842l14.398-43.943
		c0.783-2.282,2.546-2.93,5.289-1.937c1.224,0.447,2.105,1.019,2.646,1.714c0.538-0.695,1.419-1.267,2.645-1.714
		c2.741-0.993,4.505-0.346,5.289,1.937L217.26,53.988z M206.755,85.046c-1.762,0-2.975-0.461-3.636-1.378
		c-0.661-0.92-0.992-1.949-0.992-3.091v-17.65c0-2.386,1.457-3.575,4.371-3.575c2.912,0,4.37,1.189,4.37,3.575v13.853
		c0,0.199,0.024,0.373,0.074,0.521c0.047,0.148,0.243,0.224,0.587,0.224h33.054c1.813,0,2.729,1.256,2.756,3.763
		c0.022,2.506-0.896,3.761-2.756,3.761L206.755,85.046L206.755,85.046z M232.318,62.182c0,2.383-1.455,3.574-4.369,3.574
		c-2.915,0-4.372-1.191-4.372-3.574V23.601c0-2.385,1.457-3.576,4.372-3.576c2.914,0,4.369,1.191,4.369,3.576V62.182z
		 M246.057,40.656c0,1.59-0.552,2.942-1.654,4.06c-1.102,1.116-2.438,1.676-4.002,1.676c-1.567,0-2.901-0.56-4.004-1.676
		c-1.104-1.117-1.652-2.47-1.652-4.06c0-1.589,0.552-2.942,1.652-4.059c1.103-1.118,2.437-1.677,4.004-1.677
		c1.564,0,2.9,0.559,4.002,1.677C245.505,37.713,246.057,39.067,246.057,40.656z"/>
	<path fill="#FFFFFF" d="M289.614,39.166c0,5.115-1.787,9.51-5.362,13.184c-1.518,1.541-3.184,2.781-4.995,3.724
		c0.441,0.05,0.857,0.175,1.25,0.373c0.687,0.349,1.271,0.968,1.763,1.861l8.229,15.045l8.228-15.045
		c0.49-0.896,1.077-1.516,1.765-1.861c0.686-0.348,1.471-0.521,2.352-0.521c0.93,0,1.737,0.174,2.423,0.521
		c0.687,0.347,1.273,0.968,1.765,1.861l11.827,21.676c1.42,2.578,0.832,4.394-1.765,5.436c-2.595,1.043-4.407,0.646-5.436-1.189
		l-8.74-16.09L294.1,84.23c-0.344,0.644-0.834,1.09-1.469,1.34c-0.637,0.248-1.299,0.347-1.982,0.298
		c-0.783,0.049-1.506-0.05-2.168-0.298c-0.66-0.25-1.188-0.696-1.578-1.34l-8.742-16.09l-8.813,16.09
		c-1.029,1.836-2.843,2.232-5.437,1.189c-2.599-1.042-3.187-2.855-1.765-5.436l11.828-21.676c0.146-0.248,0.293-0.496,0.439-0.744
		c-0.979,0.146-2.01,0.224-3.085,0.224c-5.192,0-9.562-1.813-13.112-5.437c-3.552-3.624-5.326-8.019-5.326-13.184
		c0-5.164,1.774-9.559,5.326-13.184c3.551-3.624,7.92-5.437,13.112-5.437c5.093,0,9.412,1.813,12.964,5.437
		C287.839,29.608,289.614,34.002,289.614,39.166z M280.874,39.166c0-3.078-0.942-5.697-2.828-7.858
		c-1.886-2.16-4.126-3.239-6.721-3.239c-2.646,0-4.899,1.079-6.757,3.239c-1.862,2.161-2.793,4.78-2.793,7.858
		c0,3.029,0.931,5.637,2.793,7.821c1.856,2.187,4.111,3.277,6.757,3.277c2.595,0,4.835-1.091,6.721-3.277
		C279.932,44.803,280.874,42.195,280.874,39.166z M310.477,51.008c0,2.383-1.457,3.575-4.369,3.575c-2.913,0-4.37-1.19-4.37-3.575
		V23.525c0-2.383,1.457-3.575,4.37-3.575c2.912,0,4.369,1.192,4.369,3.575V51.008z"/>
	<path fill="#FFFFFF" d="M359.766,47.284c0,7.2-1.65,13.405-4.958,18.62c-3.306,5.214-7.799,7.82-13.478,7.82
		c-5.633,0-10.138-2.582-13.519-7.746c-3.378-5.164-5.066-11.396-5.066-18.694c0-7.299,1.688-13.53,5.066-18.695
		c3.381-5.162,7.886-7.745,13.519-7.745c5.728,0,10.231,2.595,13.516,7.782C358.126,33.816,359.766,40.036,359.766,47.284z
		 M351.172,47.284c0-5.312-0.845-9.795-2.534-13.444c-1.688-3.649-4.126-5.475-7.309-5.475c-3.086,0-5.497,1.825-7.235,5.475
		c-1.738,3.649-2.607,8.132-2.607,13.444c0,5.313,0.869,9.794,2.607,13.442c1.738,3.649,4.149,5.476,7.235,5.476
		c3.183,0,5.619-1.825,7.309-5.476C350.327,57.077,351.172,52.599,351.172,47.284z M371.227,46.615c0,1.589-0.551,2.941-1.65,4.059
		c-1.104,1.117-2.438,1.676-4.006,1.676s-2.9-0.559-4.003-1.676c-1.103-1.117-1.651-2.47-1.651-4.059
		c0-1.589,0.551-2.942,1.651-4.06c1.103-1.118,2.436-1.677,4.003-1.677s2.9,0.559,4.006,1.677
		C370.676,43.672,371.227,45.026,371.227,46.615z M380.261,79.759c0,2.384-1.456,3.573-4.369,3.573
		c-2.914,0-4.369-1.189-4.369-3.573V23.601c0-2.385,1.455-3.576,4.369-3.576c2.913,0,4.369,1.191,4.369,3.576V79.759z"/>
	<path fill="#FFFFFF" d="M413.023,22.258c1.175,0,2.46,0.273,3.855,0.819c1.396,0.548,2.729,1.24,4.002,2.085h-0.071
		c1.271,0.942,2.251,2.172,2.938,3.687c0.687,1.516,1.029,3.267,1.029,5.251v3.575c0,4.618-2.205,8.367-6.611,11.247
		c-4.407,2.83-6.612,5.711-6.612,8.641v5.733c0,2.138-1.469,3.254-4.406,3.354c-2.842,0-4.262-1.117-4.262-3.354V57.71
		c0-2.83,0.576-5.237,1.729-7.225c1.147-1.985,2.755-3.5,4.813-4.543c2.153-0.993,3.808-2.247,4.957-3.762
		c1.15-1.514,1.729-3.214,1.729-5.102v-2.31c0-1.24-0.383-2.384-1.141-3.427c-0.76-1.043-2.046-1.563-3.854-1.563h-4.776
		c-1.812,0-3.085,0.521-3.818,1.563c-0.733,1.043-1.103,2.187-1.103,3.427v2.979c0,2.334-1.468,3.501-4.405,3.501
		c-2.843,0-4.262-1.167-4.262-3.501v-3.649c0-4.021,1.298-7.001,3.895-8.937h-0.071c1.271-0.845,2.593-1.538,3.966-2.085
		c1.368-0.546,2.692-0.819,3.966-0.819L413.023,22.258L413.023,22.258z M413.17,75.364c0,1.737-0.576,3.188-1.727,4.356
		c-1.152,1.165-2.561,1.75-4.225,1.75c-1.666,0-3.072-0.585-4.225-1.75c-1.151-1.168-1.728-2.619-1.728-4.356
		c0-1.688,0.573-3.104,1.728-4.246c1.148-1.142,2.559-1.714,4.225-1.714c1.664,0,3.07,0.572,4.225,1.714
		C412.594,72.262,413.17,73.676,413.17,75.364z"/>
</g>
</svg>
